<svg xmlns="http://www.w3.org/2000/svg" viewBox="0 0 1412.56 1049.2"><defs><style>.cls-1{fill:#5168a5;}.cls-2{fill:#f5bc41;}.cls-3{fill:#326f72;}.cls-4{fill:#ee9639;}.cls-5{fill:#97caf9;}.cls-6{fill:#dc6763;}</style></defs><title>map</title>

    
<g id="quartieri">   
 <g id="casanova"><polygon class="cls-1" points="180.5 682.03 205.5 747.03 195.5 755.03 157.5 711.03 161.5 704.03 168.5 702.03 180.5 682.03"/><polygon class="cls-1" points="156.5 712.03 151.5 721.03 155.5 725.03 152.5 729.03 164.5 739.03 172.5 732.03 156.5 712.03"/>
<path class="cls-1" d="M164.5,740.5l9-7,23,28-7,5-27-22S165.5,742.5,164.5,740.5Z" transform="translate(0 0.53)"/><polygon class="cls-1" points="182.5 681.03 199.5 675.03 204.5 686.03 207.5 686.03 210.5 695.03 190.5 704.03 182.5 681.03"/><polygon class="cls-1" points="191.5 706.03 211.5 697.03 213.5 701.03 211.5 705.03 216.5 719.03 200.5 727.03 191.5 706.03"/><polygon class="cls-1" points="214.5 703.03 213.5 705.03 219.5 721.03 217.5 729.03 222.5 738.03 235.5 727.03 226.5 702.03 214.5 703.03"/><path class="cls-1" d="M224.5,691.5l14-6,11,25a3.53,3.53,0,0,1-1,4l-11,11Z" transform="translate(0 0.53)"/><path class="cls-1" d="M211.5,682.5l-5-12,7-3s0,2,3,1l12-4,9,20-25,10-4-10Z" transform="translate(0 0.53)"/><polygon class="cls-1" points="181.5 679.03 194.5 674.03 190.5 665.03 178.5 670.03 181.5 679.03"/><path class="cls-1" d="M210.5,738.5v1l1,1,8-4,2,3s1,1,3,0l-25,20-3-4,11-9-7-17,17-9-2,8,3,6-8,4" transform="translate(0 0.53)"/><path class="cls-1" d="M176.17,669.24s4.12,7.51,2.8,11.59c-1.14,3.54-10.47,17.67-10.47,17.67a26,26,0,0,0-7,3c-3,2-6,7-6,7l-24-27a6.93,6.93,0,0,0-5,0c-3,1-14,3-14,3s-4,1-4-4v-15s1-3,5-2,54,10,54,10l4-2Z" transform="translate(0 0.53)"/><polyline class="cls-1" points="127.51 825.06 187.5 768.03 155.41 742.24 121.95 764.9 128.2 775.46 135.84 783.54 140.84 784.76 145.43 788.65 148.35 794.35 112.72 818.13 127.47 825.04"/><path class="cls-1" d="M150.48,611.05l24,54.45-9,4-165-34v-267h75l72,181,21-9s2,3,2,4-1,15-1,15l13,37Z" transform="translate(0 0.53)"/><polygon class="cls-1" points="224.5 582.03 234.5 604.03 216.5 611.03 224.5 631.03 174.5 652.03 156.5 613.03 224.5 582.03"/><path class="cls-1" d="M173.5,544.5l-1,15s12,36,13,36,38-17,38-17l-21-48Z" transform="translate(0 0.53)"/><path class="cls-1" d="M172.5,541.5l29-14-18-41s-48,20-49,21,13,38,14,38,20-9,20-9l3,5Z" transform="translate(0 0.53)"/><polygon class="cls-1" points="142.5 460.03 167.5 450.03 182.5 485.03 156.5 496.03 142.5 460.03"/><path class="cls-1" d="M132.5,502.5l-32-77,18-8s-1,6,6,4,26-9,26-9l14,34-26,11,14,36Z" transform="translate(0 0.53)"/><path class="cls-1" d="M132.5,376.5l15,33s-25,11-26,9l-15-31Z" transform="translate(0 0.53)"/><polygon class="cls-1" points="88.5 396.03 105.5 390.03 116.5 416.03 100.5 423.03 88.5 396.03"/><path class="cls-1" d="M78.5,368.5l10,23,43-17s-7-12-24-9A184.78,184.78,0,0,1,78.5,368.5Z" transform="translate(0 0.53)"/><path class="cls-1" d="M110,816.63l-3.25-1.48c-3.25-1.48-16.85-5.46-16.85-5.46l-22.4-5.32L55.38,756S84.24,738.91,87,737.33s1.58-4.73,1.58-4.73-5.33-12.23-6.47-13-1.39.86-1.39.86,5.25,10.66,6.09,12.18-.85,3-.85,3L55,753.5l-8.62-30.63,18.89-11.18s1.71-.91,1.61-2-2.18.27-2.18.27L45.41,720.5,25.88,646.88,110.5,661.5s-3,0-4,2v18s0,6,7,5,15-3,15-3,3-1,4,1,22,26,22,26l-6,10,4,4-3,5,12,11c1,2-1.49,2.44-1.49,2.44l-4.72-3.8L119.5,763.62l7.36,12.6,7.6,8.54,6.3,1.88,3,2.68,1.81,3.76Z" transform="translate(0 0.53)"/>
<path class="cls-1" d="M27.46,790.44c2.65,1.41,4.87,2.54,6.37,3.29,6.32,3.16,31,10.08,31,10.08L53,754.5,22.86,646.36.5,642.83,0,699.5s17.09,32.41,20,38,8.68,30.63,8.68,30.63-.93,15.72-.93,17.55-.3,4.77-.3,4.77" transform="translate(0 0.53)"/><path class="cls-1" d="M275.9,674.27,273,682.8,259.83,692s2.54,5.17,3.38,7.49-1.6,1.34-1.6,1.34-5.07-12.21-5.83-13.62a1.69,1.69,0,0,1,.71-2.25l12.26-1.22,3.38-3.38,2.51-7.78L257.5,649.5l-28,13,21,46s2,2,1,4l32-28Z" transform="translate(0 0.53)"/><path class="cls-1" d="M250.08,634.27l-39.56,16.65s-.22,1.21.86,1.48,39.55-16.14,39.55-16.14v-.05l.57,1.3,5,10s-35,16-38,17-4,0-4,0c-1,0-7-8-7-8l-5-1-21,9-3-7c-1-3,0-4,0-4l50-21-8-20,17-7,12.61,28.82" transform="translate(0 0.53)"/><polygon class="cls-1" points="257.67 687.35 259.55 691.32 265.55 686.91 257.67 687.35"/><polygon class="cls-1" points="213.5 698.03 214.5 700.03 226.5 699.03 223.5 693.03 218.5 695.03 219.5 697.03 213.5 698.03"/><path class="cls-1" d="M25.88,798S47.81,807.21,54,808.74,70.18,812,70.18,812s31.36,7.24,37.06,10.53,14.26,8,14.26,8l-20.18,24.85s-13.82-10.09-14.69-10.31-2.19-.22-2.41.88,15.67,12.31,15.67,12.31l-22,27.82-7-4.28s-5.29-1.86-6,0,1.5,1.23,1.5,1.23l2.17.27,7.82,4.54L67.6,902.46s-2.87,4.55-6.2,5.79-14.64,1-14.64,1l.4-12.15L43.59,874.5l-4.91-17.72L29.4,820.27Z" transform="translate(0 0.53)"/><path class="cls-1" d="M0,728.2s9.9,18.7,10.32,25.23,2.59,28.05,2.59,28.05L0,773.26Z" transform="translate(0 0.53)"/><path class="cls-1" d="M0,781.48,12.9,791s1.41,8.42,2.35,15.29,4.53,11.43,4.76,20.53a31.28,31.28,0,0,0,4.91,15.75s3.75,16.74,2.81,23.46,1.87,13.47,2.5,17,5.62,9.74,1.87,20.5-9,27.92-16.85,36.66S0,956.07,0,956.07Z" transform="translate(0 0.53)"/><path class="cls-1" d="M46.66,913.94H61.57s-3.07,7.33-4.95,10.92-13.9,28-13.9,28l-19.35,34.2L7,1024H0V974.93l13.87-14.85S29,943.55,30.78,942.38,41,921.29,41,921.29Z" transform="translate(0 0.53)"/></g>  
 <g id="rencio"><polygon class="cls-2" points="960.88 361.16 997 382.91 1001.38 382.91 1007.5 374.16 997.38 369.41 977.5 348.03 973.38 346.16 972.25 350.03 960.88 361.16"/><path class="cls-2" d="M960,362.5l36,22.13h5.75l7.63-11.06,24.88,27.06L1039,403v1.88s-14.56-.5-14.75-1-14.37-3.62-14.37-3.62l-16.25-4.37L963.5,383.69l-10.25-5.94-5.37-1.25Z" transform="translate(0 0.53)"/><path class="cls-2" d="M1024.75,386.88l3.75,4.75,6.75-5.37,1.25,1.75-5.87,5,6.5,7.38,5.38,2.63a2.78,2.78,0,0,1,1.38-1.75,4.05,4.05,0,0,1,2.88-.12l1.88-4.87-6.37-7.25,1.63-1.25,6,6.88,11.38-10.37-22.25-9.5-3.5,3.63,5.25,5.31-1.75,1.56-4.75-6.12Z" transform="translate(0 0.53)"/><path class="cls-2" d="M1048.5,401.75c.06.31,1,.75,1.25,2.25a9.4,9.4,0,0,1,0,2.88l11.5-.19,9-.06,5.75-.75,6-15.37,1.88.63-5.62,14.75,17-2.87.51,1.25-2.75.63.63,1.38,55.88-14.12L1134,364.88l-8.5-12.12-6.87-1.25-44.12,18-1.37,6s-2.19,3.19-2.5,3.13-13.25,12.13-13.25,12.13Z" transform="translate(0 0.53)"/><path class="cls-2" d="M1067.63,329.63c.56.25,59.5,13,59.5,13l-2.25,1.75L1073,365.5l-5.37,9.75-6.37,5.13-21.5-10.83Z" transform="translate(0 0.53)"/><path class="cls-2" d="M782.88,338.5l19.5-3.25s-13.19-67-13.62-66.87-19.62-9.75-19.62-9.75l-3.5-34.12,2.75-17.62-2-3.87-6.87,17.88,5.5,45.75Z" transform="translate(0 0.53)"/><path class="cls-2" d="M784.5,343.38l66.88-15.87,27.38,9,1.13,2-2.75,10.38s-21,.13-37.12,5.38-47.25,18.38-47.25,18.38Z" transform="translate(0 0.53)"/><polygon class="cls-2" points="823.13 330.53 850.88 324.91 847.5 283.28 827.38 284.91 824.5 286.03 812 286.53 823.13 330.53"/><polygon class="cls-2" points="794.5 288.41 810 287.03 816.63 316.78 801.13 320.16 794.5 288.41"/><polygon class="cls-2" points="791.38 269.41 794.5 286.03 809.38 284.91 807 270.16 791.38 269.41"/><path class="cls-2" d="M771.75,205.38c-1.62,2.75-4.25,18.38-4.25,18.38v5h6.75v-6.37l2.25.25v6.13h13.75l.63-10.54-11.69-1.15-1.44-1.19,1.44-1.37,12.19.63,1.25-10.62L776.88,203Z" transform="translate(0 0.53)"/><polygon class="cls-2" points="791.25 163.41 799.13 164.53 792.63 201.91 778.5 201.91 783.88 193.91 788.13 184.53 791.25 163.41"/><polygon class="cls-2" points="768.5 231.03 770.25 255.53 771.63 258.66 788.81 266.66 790.38 231.03 768.5 231.03"/><path class="cls-2" d="M767.5,200.25c1-.06,7.63,1.13,7.63,1.13l11.13-17.62L788.81,162v-4.37l1.56-5.62h2.25l.5-2.61h1.38l-1.87,11.86,15.25,2.25,6.25-2,3.88-1-14.87-21L797,135.38l-7.37-3.5-4.12,11.5-4.56,21.88-7.31,30.58Z" transform="translate(0 0.53)"/><polygon class="cls-2" points="792.75 131.53 799.13 112.66 800.63 111.78 808.5 113.28 808.5 115.91 810.25 117.78 826.5 119.91 825.38 129.91 835.38 131.53 836.75 132.41 833.25 139.28 814.75 136.53 812.63 137.16 813.5 139.28 832.25 140.66 829 153.78 829.5 165.91 827.5 165.91 823.5 161.91 819.88 161.28 811 147.28 803.88 138.28 798.38 134.41 792.75 131.53"/><path class="cls-2" d="M830.5,166.63c.13.19,1.5-2,1.5-2l-1.5-5.75s.69-12.81,1.5-13.12,3.63-6.87,3.63-6.87L844,141l.5-2.1L836.75,137l3.5-7.37s9.75,1.63,9.88,1.25a10.48,10.48,0,0,0,0-2l-8.87-1.12,7.13-8.62-.25-1.87-4.75-6-5.12-16.86h-2L841.88,112l4.38,5.75-8.37,11.88-9.75-2.37.63-10.87-18.25-2.62v-2.5l-10-2.37,13-64.25,8.88,2.75L834.5,54.5l3.88,7.75,15.13,1,24.13,79.5-1.75.38-23.37-7.37-.87,1.13,25,7.88,1.72-.37,3.16,12.34-3.81-.31.19-2.59-1.69-.25-.44,4.25,5.75,1.13-1,8.9-2.83,1.5-3.58,3.92-.75,2.08-12.25,1.92h-5.83l-11.83-5.75-6.67.5-5.42-1.83-2-2.75Z" transform="translate(0 0.53)"/><path class="cls-2" d="M821.5,0l-6.12,42.5,5.13,2.13,13.38,6.63V36.13l5-5.25L841,11.38l1.63.38L841,31l-4.75,5.5L836,51.88l3.13,7.88s15.31,1.69,15.63,1.5S861.88,59,861.88,59l-1.75-5.5L855,53.38l-.12-2.12,5.38.63,1.63-5.12,2-2.12,1-6.75-13-2,.5-2,5.63.88,1.88-6.87,1.25.13-1,6.63,4.13,1L865.5,29l1.25.13-1,6.5,1,1.25-1.12,7.75L863.75,47l-1.5,5.88,1.38,5.5,12.25-2.62,1.38-2.62V43.88l-4.12-15.12L873,24.88,866,7l-3.25-1.25-10,1.88-.5-1.87L860,4l4.38-.12,2.5,1.5,7.63,18,7-2,4.63-3.12,1.75-5L882.38,0Z" transform="translate(0 0.53)"/><path class="cls-2" d="M874.75,27.38a23.22,23.22,0,0,1,1.88-2.25l6-1.37,2.63,1.13,4.5,24.38,1.75,6.13h-2.62l-8.87-1-1-2-.12-8.75Z" transform="translate(0 0.53)"/><path class="cls-2" d="M884.75,0,890,14.38l-2.12,5.25-.5,5.5s4.38,21.94,4.13,22.25,3.38,8,3.38,8l14,1.63,2.63-.62V52.13l-4.25-12.56h1.25l4.63,11.56V57.5l4.25,1.63,3.88-5.62,6-2.25,3-.75,6.63-7.37,2.38-4.62,1.63,1.06L938,44.63l-6.5,7.5L924.63,54l-1.12,1.38L932.25,63,931,64.38l-8.75-8-3,4s19.69,14.5,20,14.63,9.5-10.25,9.5-10.25l6.5-7.87v-9l-15-20L914.38,0Z" transform="translate(0 0.53)"/><path class="cls-2" d="M895.63,57.75c0,.38,1.63,7.13,1.63,7.13l3,6.25.75,10.5s15.06,6.75,14.88,7.25,6,5.52,6,5.52l2.88,4.73h6l4.38-12,2,.63L933,99.13l2.38.88,3,2.75,4.5-8.36,1.5.86,3.25-5.87.88,1.13L941.88,105l-1.12,1.75-7-5.75h-3.87l-4.25-.12.19,1.5,4.69.06,1.6,3.31,3.1,3.44-1.46.85-4.56-6-2.87-.15,1.5,13,4.94,9.31,2.69-1.19,3.81-3.69,2.38-5.12,1.69.63-2.12,4.75,5.44,2.06-.69,1.44-5.62-2.44-4.94,4.75-2.31,1,1.81,7.69-1.19,9.31,13.62,7.75,5.44-11.75-1.5-2.75-4.31-1.81.56-1.56,5.25,1.88,2.25,4.25-6.06,13,2.44,1.63,16.12-.75,4.5,1.38,2.56-9.44,2.56-4.62-.94-.75-1.37,2.06-1.12-1.25,1.44-3.19,3.5,1.56,2.5-.94,1.75-5-9.56-4.12-1.69,4.37-2-.75,2.19-4.94L960.19,124l-2.12,5.44-1.56-1.19,2.25-5.62v-2.25l1.19-3.81-4.62-2.44-.5-1.62-5.12-2.75,4.12-7.5,5.06,2L961,99.94l1.81.87-3.25,6.06-4.37-2.19-2.06,4.5,9.44,5.31-2,7.06,20.94,10.87-1.12-3.31,3.06-4.81,1.25,1.31-2.56,3.5,2.19,5.25,7,3.5L1002,122.13,996.88,118l-5.25-8.12L980.5,105s-13.66-10.09-13.69-9.94-35.94-22.37-35.94-22.37L915.25,60.56a41.31,41.31,0,0,0-9.81-2.37A49.52,49.52,0,0,0,895.63,57.75Z" transform="translate(0 0.53)"/>
<path class="cls-2" d="M984.25,136.83a60,60,0,0,1,6.67,3.17l-6,20.92-11.17-3.75,1.67-7.25,3-6.58,3.92-1.42Z" transform="translate(0 0.53)"/><path class="cls-2" d="M1004,123.25l12,8.92-1.67,2,.33,8.08h2.08l-.33-7.25,1.33-1.92,21.83,20L1036,175.25l-3.33-1.33-.42-1.83-5.25-1.67-.58,1.5,4.33,1.83.75,2.08,3.83,1.17-3.08,9-21.5,10.42s-.83-1.86-1.92-1.86a4.87,4.87,0,0,0-2.25.78l-1.67-2.58,6.25-15.17-.17-2.75,4.58-5.67,5.67,1.75,1.83-4.83-1.92-.75-.92,2.58-3.75-1.17,1-3.75-1.83-.33-1,3.92-4,5.33-7.75-6.17L987,161.42l5.75-20.08,9.75,5.17,1.33-2.5-10.58-4.92Z" transform="translate(0 0.53)"/><path class="cls-2" d="M1047,186.42l7.58.67,6-.08v14.58l.58,1.75-9.42,11.92-20.83-2.75s1.29-5.67,1.25-5.92-.33-10.75-.33-10.75l-1.83-.08v10.5l-1.5,5.75-5-.5-11.33,1.92-1.92-13.67,1.08-1.83,22.25-9.92,11.25-1.58.33,8.14,2.08,1.36,3.25.08.17-2.42-3.5-.08Z" transform="translate(0 0.53)"/><polygon class="cls-2" points="1000.25 202.45 1005 200.7 1008.17 200.7 1010.75 221.87 1007.58 219.45 1000.25 202.45"/><polygon class="cls-2" points="1012.33 215.78 1013.29 227.03 1037.75 231.03 1047.08 220.62 1047.67 217.28 1023.42 214.12 1012.33 215.78"/><polygon class="cls-2" points="1014.33 229.37 1017.75 229.37 1035.71 232.95 1028.67 238.78 1021 240.53 1017.58 242.03 1014.33 229.37"/><path class="cls-2" d="M1012.67,229.58c-.17.25,3.08,13.58,3.08,13.58l-16.83,14.08-4,3.17s-.21-.71-1.42-.67-1.42.67-1.42.67l-4.75-24.67Z" transform="translate(0 0.53)"/><polygon class="cls-2" points="987.33 234.45 993.25 233.28 992.42 227.2 994.17 226.95 995.42 233.03 1011.92 228.12 1010.75 224.45 1006.08 220.95 1002.25 212.62 982.17 222.57 987.33 234.45"/><polygon class="cls-2" points="997.83 203.37 1001.54 210.95 980.83 220.62 978.83 211.62 997.83 203.37"/><polygon class="cls-2" points="956.58 226.87 955.5 230.12 961.58 244.95 973.75 238.53 984.58 234.95 979.92 223.53 970.42 228.12 969.58 226.12 979.75 221.28 977 211.99 974.25 211.99 973.83 215.37 965.33 219.7 960.33 220.62 958.08 222.95 957.58 226.03 956.58 226.87"/><path class="cls-2" d="M955.5,224.92a30.71,30.71,0,0,1-2.08,3.42l3.75,8.83-.92,1.33,3.08,8.83-.75,5.33-17.75,7.75-7.5-17.75.33-29.08,23.17-2.12h14.83v1.79l-5.58,3.67-7.92,1.67Z" transform="translate(0 0.53)"/><polygon class="cls-2" points="977.75 209.87 1003.67 198.95 1003.67 194.37 990.19 191.28 974.5 184.7 964.08 180.28 960.42 209.87 977.75 209.87"/><circle class="cls-2" cx="1008.1" cy="198.14" r="1.19"/><path class="cls-2" d="M941.58,261.75s9.71,22.75,10.08,22.67a5.42,5.42,0,0,1,3.08-.17,4.81,4.81,0,0,1,1.92,2L968,282.17l21.33-17.25s0-2.5.58-3.17-4.42-25.42-4.42-25.42l-8.58,3,4.25,11.58-1.08,2.83-1.33-1.33.58-2.67s-4.54-9.71-4.33-9.67-14.08,7.33-14.08,7.33l-1,6.83Z" transform="translate(0 0.53)"/><polygon class="cls-2" points="898.5 269.7 919.08 278.03 914.08 291.28 911.58 293.45 900.08 293.45 898.5 269.7"/><path class="cls-2" d="M900.17,295.5c.67,0,6.5,0,6.5,0l1.67,21.67,2.17.42-1.71-22.75,4.13-.58,2.67-2.58,4.5,3.42.83,4.83,1.67.25v-4.83l-2.42-2.75-3.5-2.33,4.5-12.42,27.42,11.08.75,2.5-3.08,8.83-21.83,19.92-15.62,12.92-5.37,1.67Z" transform="translate(0 0.53)"/><polygon class="cls-2" points="889.75 311.78 891.08 309.87 898.92 309.45 900.17 320.37 891.67 320.37 890.25 319.12 889.75 311.78"/><path class="cls-2" d="M931,244.42c.42.25,19.38,41.08,19.38,41.08a2,2,0,0,0-.75.75,6.57,6.57,0,0,0-.46,1.21l-35.75-14.54,1.17-2-.67-7.54-1.54-.08.33,6.67L911,272.79s-13-6.09-13-6.47,2.24-11.1,2.24-11.1,18.71-.5,19.46-.69S931,244.42,931,244.42Z" transform="translate(0 0.53)"/><circle class="cls-2" cx="952.6" cy="289.1" r="1.1"/><path class="cls-2" d="M869.31,277.19c.19-.09,13.12-1.94,13.12-1.94l2.31-2.25,11.79-4.69.84,14.44-1.56.75.44,5.44,1.68,2,.94,16.12-9.12.75-1.75,2-.06,1.63h-5.75l-1.12,1.13-10-.31Z" transform="translate(0 0.53)"/><path class="cls-2" d="M868.92,264.33c.17.54,0,10.33,0,10.33L881,273l2.58-1.58,12.33-4.58-3.83-3.92-5.67-2.5-7.92,1.83-3.92,2Z" transform="translate(0 0.53)"/><path class="cls-2" d="M895.92,263.92l1.08-.67,2.58-11h19.83l2.92-3.67-19.33.5.38-1.29,21.38-.58,6.5-5.21v-7.42l-10.75,2.67-19.25,1.58-1.83-8.33-7.29,1.17v8.54l-1.62.29v-9l-18-1V241l11.88.19.14,2-12.06-.1-.55,18.63,2.42.67,3.17-1.42s7.25-2,7.5-2.08,5.83,1.58,5.83,1.58Z" transform="translate(0 0.53)"/><polygon class="cls-2" points="802.38 322.03 816.63 319.03 819.88 332.03 804.88 335.28 802.38 322.03"/><path class="cls-2" d="M794.75,201.38c.31.06,41.38,10.63,41.38,10.63H840l-10.5-26.87-.5-13.87-5.5-6.87-4.12-2.12-8.5,3.13s.13,2.13.5,2.13,1.25.75,1.25.75l1.25,4.63-1.62.5L810.63,169l-2.25-1.75-.12-1.87L800.5,164Z" transform="translate(0 0.53)"/><path class="cls-2" d="M831.88,172.75l.5,12.56L843,212.75h6.88l7.38-9.75,6.5-4.62,3.75-.87,4.42-10.37.58-9.25-12,1.25V189.5l-2.12-.25-.12-9.5s-3.94-.94-3.62-.87-.25,17.88-.25,17.88l-6.25,1.38-.5-2.12,4.75-.87V177.88l-7.5-3.62Z" transform="translate(0 0.53)"/><path class="cls-2" d="M869.38,196.42c.25.77,1.25,3,1.25,3l7.25,1.46,27.63-2V185.63l1.88-.87v-10l-11.75-.87L890,170.63l-8.5-.87L878.13,172,876,176l-1.5,2.5-1,10.63Z" transform="translate(0 0.53)"/><path class="cls-2" d="M886,57.67l-7.5-.8-2,2-20.37,4.38s17.5,61.63,17.88,61.5,9.75-1.5,9.75-1.5l-1.5-12.87,6.13-.12V112l-3.62.63,1.75,12.13s-12.06,1.56-11.75,1.62S884,156.63,884,156.63L882.63,168l11.5,1.75,1-4.37,5.25-3.12,2-14.37,1.5.25-2,15.13-4.75,5.13.13,2.38s14.25.63,14.63.63h15.75l3.5-1.62.38-9.92-9.25-.58.63-1.87,8.63.38v-8.87l-17.62-.75.25-1.87,17.38.63,1.63-11.37-1.75-7.62-4-7.75a14.28,14.28,0,0,0-1.87,2.25c0,.31-.62,3.88-.62,3.88l.25,5.38-1.62.13-.37-7.12,2-4.87-19-.75v5.75l-1.5-.12v-6.25l-6.62-.25v-1.87l26.5,1.5,1-4.5-.87-8.5-14,.75-.37,1.65h-3.87l.25-1.77,2.38-.12.38-2,14.38-.75-1-4s-3.94-4.87-4.25-4.75S908,87.63,908,87.63l-7.62-4.12-7.25.25-.62-1.5,6.38-.25-.37-9.87-3.87-8.5-8.5-1.5Z" transform="translate(0 0.53)"/><polygon class="cls-2" points="887.88 57.41 893 58.21 894 61.03 887.88 61.03 887.88 57.41"/><path class="cls-2" d="M934,148.13l-.67,20.5,11,1.13,20.75,7.5s24.44,11.06,25.06,10.88,3.94-9.37,3.94-9.37l1.75,1s-3.56,8.94-3.25,9,10.5,2.75,10.5,2.75l5.63-14.25v-2.5l-7.75-6.87-3.12-2L967.5,157.5l-16.62.38-2.06-.75Z" transform="translate(0 0.53)"/><path class="cls-2" d="M909.25,174.13v10.5l-1.87,1.88v10.63s12.88-.37,13.38,0,9.25,3,9.25,3l3.13,2.71.21,8.63,25.35-2.65.69-14.26-5.62-.56.38-2.5,6.29.75,1.71-13.37-17.62-7.5h-8.25l-5.87,1.38Z" transform="translate(0 0.53)"/><path class="cls-2" d="M813.63,259c.31.13,10.13,0,10.13,0v2.88L826.5,263v2.94l-2.87,2.37H812.75Z" transform="translate(0 0.53)"/><path class="cls-2" d="M809.38,270.13c.88-.19,14.25.63,14.25.63l3.75-2.44,1.75-2.19V263l18,.66,1.63,1.72v13.5L845.88,281l-17.62.71-4.12,1.88-12.12.75Z" transform="translate(0 0.53)"/><polygon class="cls-2" points="825.5 257.78 825.88 260.95 827.63 261.78 848.13 262.53 849.38 233.53 826.5 234.03 825.5 257.78"/><polygon class="cls-2" points="852.19 225.78 850.13 262.53 866.25 264.45 868.38 262.53 869.88 262.53 870.75 231.03 852.19 225.78"/><polygon class="cls-2" points="850.13 265.03 851.38 264.19 865.5 266.47 867.5 267.41 868.13 289.91 850.88 289.91 850.13 265.03"/><path class="cls-2" d="M850.13,291.38h18l.79,15.63-18,.5Z" transform="translate(0 0.53)"/><path class="cls-2" d="M851.38,308.92h16.75l.79,3s.15.15-.79,1.67-4.87,10.83-4.87,10.83l-4.87-.69-5.37.69Z" transform="translate(0 0.53)"/><path class="cls-2" d="M868.13,316.65s-3.06,7.54-2.75,7.73,3,3.94,3.55,3.88,10.33,3.5,10.33,3.5,11.25,3.13,11.63,3,8.63,0,8.63,0h2l-.75-9.05-.58-2.57-9.42-.37-.25,2.95H889l-.75-11.32h-7.87l-3-.62Z" transform="translate(0 0.53)"/><path class="cls-2" d="M790.38,266.63c.63.06,19,.92,19,.92l1.75-.92V251.38h3.25v5.38h8.5l.88-22.37L793.63,232s-1.62,1.56-1.62,1.88S790.38,263,790.38,263Z" transform="translate(0 0.53)"/><polygon class="cls-2" points="792.63 230.16 822.13 232.53 842.63 231.91 841 224.03 838.88 219.28 839 214.78 819.63 209.66 794.75 204.63 792.63 230.16"/><polygon class="cls-2" points="842.63 215.03 841.75 219.66 844.25 230.28 849.38 231.03 851.38 216.41 842.63 215.03"/><polygon class="cls-2" points="853.63 216.41 853 223.91 870.75 228.47 870.75 216.41 853.63 216.41"/><polygon class="cls-2" points="852.19 213.28 854.63 209.87 861.88 202.53 866.38 200.28 868.92 200.78 868.92 214.53 855.38 214.53 852.19 213.28"/><path class="cls-2" d="M870.75,201.47a28.1,28.1,0,0,1,6,1.66l18.63-1.29.51,11.22-25.13.45Z" transform="translate(0 0.53)"/><polygon class="cls-2" points="898.13 202 898.81 214.03 930.94 213.28 930.94 205.41 929.38 202 920.25 199.16 908.5 199.47 906.13 200.97 898.13 202"/><polygon class="cls-2" points="872.5 216.16 897.13 215.16 898.94 216.16 900.13 224.85 897.63 229.16 891 230.66 872.5 229.03 872.5 216.16"/><path class="cls-2" d="M900.56,215.5c0,.25,1.81,8.75,1.81,8.75l-1.81,4.44s1.78,7,1.81,7.25,18.13-.44,18.13-.44l11.25-2.81V214.63Z" transform="translate(0 0.53)"/><polygon class="cls-2" points="956.5 60.03 941.33 76.87 956.5 86.53 962.13 80.37 963.5 81.53 958.33 87.87 961.17 90.03 969.17 81.7 971.04 83.37 963.83 91.2 967.5 93.87 973.75 88.37 978.83 86.2 983.83 80.53 983.83 74.7 977.5 71.2 971.04 72.87 967.5 66.37 956.5 60.03"/><path class="cls-2" d="M983.83,83c1-.17,7.08,5,7.08,5h3.58l4.83,4,1.5-1.5-5-4.67-3.5-.17L987,81V74l2.67-1L1011,85.33l3.5,9.06,4-3.89,4.5,3.89,1.17,8.11,23.5,14.17-6.5,12.17,5,4.5-3.83,6.5,13.33,14.08-2.17,4.58-12.83-7.67-19-17.67-14.75-10.83a11.64,11.64,0,0,1,2.38-.67c.63,0,5,.92,5.71,1.58s15,9.25,15,9.25l1-1.67-14.5-9-5.75-2.5-6.25,1.5-5.67-5.08-6.67-9.42L982,103.67,971,96l-1.37-2.67,6.67-4.17,3.33-1.67Z" transform="translate(0 0.53)"/><path class="cls-2" d="M912.88,356.25l1.13,5s30.25,14.56,30.38,14.25S970.13,349,970.13,349s1.63-3.87,1.25-3.87S965,344,965,344l-9.12-.75-19.62-4.75-2.37.75Z" transform="translate(0 0.53)"/><path class="cls-2" d="M881.17,342.5l.67,4.08s8.79,2.54,9,2.58,9.33,3.83,9.33,3.83l6.25,5.75,9-8.12L904.75,338.5H901.5a22.94,22.94,0,0,0-2.25,1.08c.21,0-10.33-1.08-10.33-1.08Z" transform="translate(0 0.53)"/><path class="cls-2" d="M905.17,337.33s10.67,12.63,11.08,12.42,17.42-12.42,17.42-12.42l2.08-.75,19.58,3.92.5-8.92h1.5s0,9.5,0,9.58,16.08,2,16.08,2l4.75,2.46s20.79,22,20.92,21.79,7.25-6.5,7.25-6.5l1.17,1.58-4.58,4.5,5.67,2.54,8.25,9.12,6.33,7L1038,372.25l-2-5.75,28.5-39,7-2.12,62.25,17,4.5-7.62,1.88-25.83-2.87-9.6s-21.75-17.6-21-18.27S1073,308.92,1073,308.92l-11.75,5.46-28.75-.62-3.75-1.19.25-29.81,50.5-40.62,21.25-17.87L1099,209.33l-10.25-10.54-23.5,7-10.33,9.5s4.33,2.38,1.67,5.58S1051,222,1051,222s-10.37,9.58-10.58,9.63a22.38,22.38,0,0,0-.83,3.5L1023.42,248l-21.25,17.52-4.67-1.33a8.57,8.57,0,0,1-2.67,2.83c-1.92,1.33-4.17-.67-4.17-.67S969.88,284,970,283.92s-12.37,4.65-12.37,4.65a2.61,2.61,0,0,1-1,3,3.89,3.89,0,0,1-4.22.71l-4.67,11.35s-25.33,21.63-25,21.67,1.92,2.25,1.92,2.25l-11.42,9.17s-1.46-1.5-1.25-1.5,10.42-7.67,10.42-7.67l-1.08-1.33-11.08,8.59Z" transform="translate(0 0.53)"/>
<polygon class="cls-2" points="1060.17 261.82 1077.67 248.51 1079.17 251.03 1076.83 256.37 1078.5 283.28 1080.83 283.28 1080.17 259.37 1081.83 252.62 1094.17 263.7 1091.33 269.87 1094.17 270.87 1096.38 265.03 1113.5 279.71 1097.5 290.87 1069.33 307.7 1056.83 312.53 1032.5 310.37 1032.5 282.53 1035.71 281.37 1036.67 307.87 1051.5 308.03 1054.5 305.7 1054.83 301.37 1050.17 271.87 1058.67 264.2 1063.13 267.53 1067.5 283.28 1069.67 281.87 1065.33 266.73 1060.17 261.82"/><polygon class="cls-2" points="1037.67 282.03 1048.5 272.53 1051.83 297.37 1039 297.37 1039 289.87 1037.67 282.03"/><path class="cls-2" d="M1038.38,299.31h13.46c-.08,0,.73,2.62.73,2.62l-.37,3.31-2.06,1.31h-11.31l-.81-.75Z" transform="translate(0 0.53)"/><polygon class="cls-2" points="1041.33 154.45 1071 172.7 1067.33 174.53 1060.5 184.95 1054.5 185.78 1048.42 185.2 1049.42 181.45 1051.25 182.12 1051.75 180.45 1047.75 178.87 1046.75 184.78 1034.33 185.78 1037.75 176.53 1041.33 154.45"/><path class="cls-2" d="M757,215.25l5.65-14.42,8.84-9.08,7.93-40.08,5.06-15.42,4.31-13,5.94-12,15.8-69.39L819.64,0h-9.7l-.51,14.22-1.84,3.55,1,8.53-9.58,23.5L784.56,80l-12.18,31L757,163s-6.11,47-5.33,48.46Z" transform="translate(0 0.53)"/><path class="cls-2" d="M1063.13,185.25V201.5l6.25-2.71s.88-1.67,1.63-1.79,4.63-1.62,4.63-1.62l2.5-5.25,1.63.38-2.25,5.25-2.75,3,13.88-2.92,11,6.88,3.63,6.38,1.5,12.92-1.87,5.46-10,7.67L1082.5,244v3.5l5.38,4.13,15,10.5,25.5-38.44,1.25-5.81-3.75-1.5-5-14.12-.37-10.75s-13.37-7.81-13.37-8.12-5.75-3.62-5.75-3.62-11.06-1.75-11.37-1.62-14.12-3.12-14.12-3.12h-4l-3.12,1.63Z" transform="translate(0 0.53)"/><polygon class="cls-2" points="1122.5 193.53 1137 205.41 1131.38 216.66 1127.75 215.78 1122.5 202.16 1122.5 193.53"/><polygon class="cls-2" points="1132.13 219.1 1130.5 224.53 1154.63 242.66 1159.25 237.03 1161.63 236.41 1164.25 228.66 1152.25 219.1 1148.5 225.03 1143.75 224.03 1132.13 219.1"/><path class="cls-2" d="M1128.88,226.13c.38-.19,2.63.88,2.63.88l26.38,20.88,4.63,3.5s5.81,19.94,5.75,19.38,8.5,9,8.5,9l5.63,3h7.88l2.75.63-.75,3.75,2.75,3.13,5.13-.5,3.13,2.25-7.62,14.75-22.5-9.62-5.37,13.25,13.13,6.5.5-1.87-10.62-5.12,4-9.12,19.88,8.38-10,23.13-41.25-18.5s.44-7,.38-7.37-2.25-5.12-2.25-5.12l7.5-3.5,5.88-1.75,6.13,1.38-2.87,8.63,1.88.88,3.5-10.75-6.25-2.25L1149.5,295l-8,4.13-14.37-15-9.12-8.25,4.25-7.12-12.87-7.62-3.62,2.38-1.12-1.37,12.13-17,24.38,10.25L1139,259.5l1.38,1,2.5-4.12L1162.75,274l.75-2.12-10.62-9.75-7.75-6-3.12-2.5-23.87-10.87Z" transform="translate(0 0.53)"/><path class="cls-2" d="M1186.38,333.13c.13-.37,18.81-39.31,18.5-39.25s30.25,29.75,30.25,29.75l-5.5,16-3.12,2.75Z" transform="translate(0 0.53)"/><path class="cls-2" d="M1157.75,240s1.56-1.87,1.88-1.75a19,19,0,0,0,2.5.13L1197,277.13l1.25-1.75-18.62-20.25s5.81,2.87,6.13,2.56,5.88,6.44,5.88,6.44l8,5.75,9-13.62,7.25,5.88s.81,6.81,0,7.13-6.25,9.93-6.25,9.93l-3.87,2.45-4.62-4.62-5.62,5.75-2.12-2.12-8-.5-6.62-1.5-8.37-9.75-3.75-12.5-3.12-7.62-7.37-4.62Z" transform="translate(0 0.53)"/><polygon class="cls-2" points="1165.67 230.88 1178.67 234.03 1181.67 235.7 1180.33 238.78 1175.83 237.37 1173.67 246.87 1163.17 236.87 1165.67 230.88"/><polygon class="cls-2" points="1175.67 249.87 1177.67 251.03 1181.67 241.2 1184.17 240.53 1187.17 241.7 1187.17 237.2 1184.33 236.53 1182.67 238.87 1178.5 240.87 1175.67 249.87"/><path class="cls-2" d="M1184.17,242.13c.67.38,5,2.21,5,2.21l-3,9.5-7-1.17Z" transform="translate(0 0.53)"/><polygon class="cls-2" points="1191.83 245.87 1195.67 246.87 1190.83 259.37 1187.17 256.87 1191.83 245.87"/><path class="cls-2" d="M1198.5,248.67l8.17,5.83s-6.17,11.17-6.83,11.67-7.83-5.67-7.83-5.67Z" transform="translate(0 0.53)"/><path class="cls-2" d="M1142.88,318.12l26.38,9.38s-3.19,23.88-2.87,24,14.75,3,14.75,3l7.5,16.25-20.25,8.44h-6.25l-9.75-2.94-12.25-21.87Z" transform="translate(0 0.53)"/><path class="cls-2" d="M1153.94,379.19a23.84,23.84,0,0,0,2.81-.94l5.63,2.75h5.13l23-9.25.75-2.21s-7.56-14.85-8-14.79,2.25-19.87,2.25-19.87l31.25,7.5s7,9.56,6.63,9.88,9.13,7.13,9.13,7.13l12.25.25v-1.69h-11.37l-7-5.19-5.87-9.37,7.75,1.75,3.25-2.75,5.63-17,7.63,4.75-2.87,8.5,2.88,1.25,3.75-7.62,2.63,1.75-2.25,6.25,1.5.88,2.88-6.25,3.13,2.13,4.13,23.75-1.37,1.75L1205,377.63l-4.75-10.5s-1.87.06-1.75.38,4.13,11,4.13,11l-41.75,11.38Z" transform="translate(0 0.53)"/><polygon class="cls-2" points="1170.63 328.66 1183.13 334.78 1180.5 353.53 1168.25 350.41 1170.63 328.66"/><path class="cls-2" d="M1087.67,174.42s6.21,1.29,6.42,1.17,5-.58,5-.58l12,.59,3.25,2.16-.92.83-3-1.42-8.67.08,11.83,6.58,16.92-9.42,1.42,1.75-15.33,9.08s36.83,30,37.35,30.17,10,9.46,10.31,9.5,12.17,3.58,12.17,3.58l20.33,4.58,20.08,7.25,25.42,1.33v-1.33l-20.42-2s.17-2.8.17-2.34,21.75,2.24,21.75,2.24l.67-7,2.17-2.67-3.25-9.08-1.83-.42-10.08,3.67-4.83-.33-8.58,2.17-7.25-.42-4.08-2.75,1.42-1.42,3.17,2.08,6,.42,8.5-2.08,4.42.67,10.75-3.58,3.5.25,4.42,11.33-2.08,3.25-1,8.67s12.13-3.46,12.5-3.58,7.5-1.17,7.5-1.17l.42-1.08-6.5-2.83.75-1.5,6.25,2.58,3.92-13.08V216s-3-13.08-2.83-12.83,2.42-11.67,2.42-11.67l-1-4.67-9.08-11.25s-2.79-4-3-3.83-10.42-8-10.42-8l-7.58-2.67-4-1.5-4.33-8.83-10.5-10.26h-3.58l-.58,3.51,3.5,7,.42,10.42s4,9.46,3.92,9.67.58,2.75.58,2.75l2.25,3.08,8.67,1.08,11.67,3.17-.67,1.92s-11.12-3.37-11.25-3-8.83-1-8.83-1l-3.58-3.33-4.25-13.08-.92-11.25-2.17-5.08-5-.5-7.75.42-6.17,1.17-6.83,6.33-1.67-1.08,4-4.33L1178.08,147l-9.42-1.33-7.33,1,2.92,5.75-.42,2.33-3.67,2.67-.42,5.25v3.08s-3.25,5-3.17,4.83-1.25-.67-1.25-.67l2.83-5.08.42-7.25,1.42-2.75,2.58-1.42-.08-1.33-2.92-5.25-6.5,2.58-5.25,4.25s-9,3-8.75,3.08,4,7.5,4,7.5l-1.67,1.17-3.92-7.75-4.17,2.75-2.67-.33-6.58,6.17-21.67,6.08-7.5,1.5Z" transform="translate(0 0.53)"/><path class="cls-2" d="M1186.53,232.67s16.47,5,16.72,5.67,14.42,4.91,14.42,4.91l2,2.08h6.5l3.33,2.65.67,2.52L1226,255l2.5.83,4-5.33v-4.17l-4-2.18h16.83l14.17-4.49a60,60,0,0,1,6.75,0c1,.25,18.42,5.67,18.42,5.67l2.33,1-1.17,3-2,1.17-9-2.52-.5,2.52,9.67,1.58-.5,3.75-3,3s1.08,2.08,1.5,1.66,3.67-3.07,3.67-3.07l.33-5.35,2.17-1.58.5-2.52s5.33,3.77,5.67,4.1,13.33,3.08,13.33,3.08l3.17,2.26,14.83,14.9,19,8.17v6.83l4.17,20.17V312l-3.17,7.5,2,.67,3.67-7v-6l-4.67-19.67.33-6.33,15.17,3.17s2.25,5.17,3,5,2.58,1.83,3,1.83,13.33,1.5,13.33,1.5v-2l-12.67-1.5-4.33-4.67,20.17,5.17L1401.33,301l11.23,2.5s0,41.08,0,40.67-127.81,11.92-128.23,12.17-20.42,6.92-20.83,7.17-3-28-3-28l-22-13L1224,308.67l1.67-1.17,20.83,16.33,17.33,4.29h6l-.33-2.75h-5.33l-16.5-3.71L1225,304.33l-3,3-19.67-19.5,2.67-3.67,3.33,2.17,10.67-17.5s1.25-6.42.67-6.33-8.92-7.83-8.92-7.83L1197.84,246l2.11-4.67-1.62-1-2.18,4.54-6.06-2.75-.93-5.46-3-2.33Z" transform="translate(0 0.53)"/><polygon class="cls-2" points="1139.25 206.28 1151.13 217.28 1147.5 222.57 1144.13 222.57 1132.88 216.66 1139.25 206.28"/><path class="cls-2" d="M1057.67,150c.08-.5,1-6.67,1-6.67l11,4.79-4.5,1.88Z" transform="translate(0 0.53)"/><path class="cls-2" d="M1055.67,159.83l3.67-7.83h9.5l3.83-3.87H1081l1.17-3.12-9.33-2.83,10.67-3,4,2,4,5.5,6.83-1.33,2.5-2-.83-7.83-2.5-3.5,6.17-8.75,5.17-16.1,60.17,8.6,26.67,10.75,4.17,7-1,7.51-3,4.5-5,1.17-24.67-3.33s-10.5,2.25-10.83,2.67-13.33,7.92-13.33,7.92l-12.37,4.58-7.12,5.5-16.5,5.58-9.62,2.58H1087l-3.33,1.67L1073,171.67Z" transform="translate(0 0.53)"/><path class="cls-2" d="M1059.67,132.83c.67.42,7.08,10.25,7.5,10.5s3.83,3.33,3.83,3.33h6.67l-2.5-1.83-5.5-2.17-1-2.92s11.5-3.58,12-2.92,7.33,1.33,7.33,1.33l4.33,5.17s4.58.75,4.67,0,.5-7.17.5-7.17l-7.17-3.33-.33-3.33,4.33,1.33L1101,122l-24.5-8.17-11.17-6.68-2.21,8.6,4.38,4.42.67,4.5Z" transform="translate(0 0.53)"/><path class="cls-2" d="M1268.38,236.25c.31.06,16.25,5.42,16.25,5.42h1.75l9.13,7,14.63,4.25,2.88-8.31,1.75.81-3,9s13.88,15.25,14.63,15.38S1345,277.5,1345,277.5l18.38-42.12L1362,232l1.38-1.12,2,4L1348,277.5l6.38,1.75,2-2.62,6.75-2.12h16.75l7.25-4.5,12.63-48.25,5.63-27.5-7.25-4.12-15.75-7.37h-8.75l-15.75,10.5-5.25.63-7.87.38L1332.13,197l-7.62-.37-9.87,3.5s-23.69,9.94-23.75,10.25-5.87,4.38-5.87,4.38l-12.62,1.63.13,5.38-1.92,5.13,9.29-3.12.63-4.25h1.63l-.25,5.38-11.29,4.88Z" transform="translate(0 0.53)"/><path class="cls-2" d="M1272.25,214.5l-2.37-10.75,3.25-11.62s.06-4.87,0-5,2.94-4.81,3.13-5.12,7.75-5.75,7.75-5.75l4.13-1.5,5.88,3.63,8.38-1.75,10.13-22h-1.25l-10,19.88-6.75,1.38-6.5-4.37-5.12,2.33L1276,179l-4.25,5.56L1259.5,171l2.88-5.12,4.38-.25,2.63-4L1266,159l-13-1.75-1.75-3.5-3.37-1.75H1238l-4.75-2.12-9.87-9.38,7,1.51,4.75,3.38,3.75-.12,4.5-1.5,3.75-.87,10.75,2.75,2.13-1.87,2.75-3.26,10.88-2.74,6.13,4.88,1.5-1.12-7.5-6.5-12.5,3.38s-5.75,5.13-5.5,4.75-9.25-2.63-9.25-2.63l-10.12,2.38-6.87-3.62-9.87-1.87-3.87,2-3.25-1.25V134.5l2.63-5.87,11.25-9.62h5.75l5,1.25s11.69,0,12.13-.12l7.63-2.12,3.63-3.87h6l5.13-1.12,7.5,2.38,6.25.25-.62-1.62h-4l-8-2.75-6.75,1v-2.12l7.13-9.12,7.5-2.25,9.25,2.25,10.75-.62s49.44,10.5,49.75,10.88,3.13,3.69,3.63,3.63,21.75,6.75,21.75,6.75l5.13.13,23.13,8.38-.62,1.75-8,1.88-6.12-.5-.87,3.75,24.19,13.38v39.38l-4.31,3.5-9.87-5.75-12.5-5.37L1380,180.5l-7.87.5-14.62,10.13-11.37,1.25-12.75,1.75-9.39.43-17.61,6.57L1291,208.5l-7.37,4.75Z" transform="translate(0 0.53)"/><path class="cls-2" d="M1233.75,152.88s1.88,5.13,2.5,5.38,9.5,3.13,9.5,3.13l11.63,8.13,4-6,2.75.13,2.13-2.44H1262l-11.12-1.69-.87-2.37s-4-2.25-3.62-2.25l-9,.13Z" transform="translate(0 0.53)"/><path class="cls-2" d="M1209.75,136.75l-6.5-1.62-6.75-10.87-25.12-10.37s-13.81-3.44-14.62-3.37-2,1.75-2,1.75l-46-6.75-18.5,1-22-1.75-6.75-9.12L1151.13,26,1171,21.33,1256,0l68,37-2.65,65.5-18.58-4.17-13,.42L1281,96.17l-9.33,2.08-2.92,5.25-9.42,1v1.75l7.75-.58-8.25,6.67-3.83,3.83-8.08,2.25-11.25-.25-7.42-2.17-2-2.58-8.08,2.5-4.67-.33-2.42-2.5-5.5-.42c-.58,0-.17,1.83-.17,1.83l4.17.42,2.08,2.83,4.33.75,8-2.5,1.17,1.08-11.92,10.42-2.08,4.25Z" transform="translate(0 0.53)"/>
<polygon class="cls-2" points="1048.59 119.64 1043.75 128.6 1047.57 132.41 1048.59 133.88 1044.63 139.9 1054.76 150.53 1056.82 141.66 1061.5 138.58 1057.67 132.41 1065.92 123.78 1064.74 119.64 1061.5 116.28 1063.67 108.78 1061.5 107.68 1052.67 116.28 1048.59 119.64"/><polygon class="cls-2" points="920 0.53 944.16 27.29 957.04 43.54 957.87 57.41 967.5 63 971.67 70.15 978.16 68.91 984.81 72.47 989.13 70.81 1012.67 84.11 1015.24 91.6 1018.56 88.44 1024.38 92.93 1026.38 101.57 1049.68 116.28 1063.67 103.34 1057.67 94.93 1148.49 24.18 1250.07 0.53 920 0.53"/></g>    
 <g id="novacella"><path class="cls-4" d="M679.67,349.17l40.33-.58.5,22.17-30.17.42-11.83-1.58s.25-8.92.5-8.92,9.92.42,9.92.42l.08-2.17h-9.33Z" transform="translate(0 0.53)"/><polygon class="cls-4" points="722.17 349.12 762.75 348.03 763.5 363.53 761.67 368.87 763.83 372.28 752.67 401.2 726.17 395.78 728.25 390.7 727.5 388.37 722.17 383.78 722.17 367.12 730.83 363.28 749.67 362.87 749.67 360.87 732 361.28 722.58 364.45 722.17 349.12"/><path class="cls-4" d="M725.58,396.83c.33.21,26.92,5.67,26.92,5.67l-.92,12.58L727.08,451l-23.33-13.58-9.25,14.67-4-1.5,16.33-28.5,4,3.92,3.67,2.17,1-1.42-5.5-3.92-1.92-3.5.92-1.25,2.58,1.33Z" transform="translate(0 0.53)"/><path class="cls-4" d="M690.94,372.75H720.5v10.31l-13.06,22.37s-8.09-4.7-7.94-4.77,4.19-7.29,4.19-7.29l-1.56-1-4.06,7.25-5.62-2.79.31-1.4-1.56-6.34Z" transform="translate(0 0.53)"/><polygon class="cls-4" points="688.69 373.28 689.44 389.28 690.5 396.72 675.13 387.28 678.5 372.1 688.69 373.28"/><polygon class="cls-4" points="674.38 389.63 706.69 407.35 679.75 453.41 677.56 452.16 674.38 452.62 664.75 444.72 652.88 448.28 647.63 430.41 652.25 429.03 651.44 427.47 646.88 428.85 644.44 419.72 656.25 413.85 664.13 407.1 674.38 389.63"/><polygon class="cls-4" points="653.38 450.1 663.94 447.35 671.88 453.41 673.31 454.66 676.5 453.41 678.06 454.66 658.06 467.78 653.38 450.1"/><path class="cls-4" d="M641.5,421l14.33,46.27L590,487.67l-12.33,8-14,6.33-12.17,2S540,474.75,540,475.17s41.17-17.69,41.67-18.14S641.5,421,641.5,421Z" transform="translate(0 0.53)"/><polygon class="cls-4" points="665.72 401.2 672 389.63 675.56 371.7 648.67 370.7 645.33 389.63 652.5 391.53 661.5 397.37 665.72 401.2"/><polygon class="cls-4" points="644.44 391.53 651.67 393.53 663.67 401.2 658.83 407.7 645.33 416.53 640.83 404.03 644.44 391.53"/><path class="cls-4" d="M637.83,396.19a15.86,15.86,0,0,1,3,0l6-26-9,1L632,372.75Z" transform="translate(0 0.53)"/><polygon class="cls-4" points="653.33 346.87 676.5 349.12 675.96 370.24 649.04 368.91 653.33 346.87"/><polygon class="cls-4" points="647.08 368.99 651.42 345.82 621.79 341.41 630.5 371.03 637.5 368.99 647.08 368.99"/><path class="cls-4" d="M619.17,340.88c.33.46,8.5,30.29,8.5,30.29l-25.17,6L579,383.88l.83-29.37,28.33-1.33v-2l-27.33.83L584,336.5Z" transform="translate(0 0.53)"/><path class="cls-4" d="M541.5,383.18l-8,42.32s27.67,5,28.17,4.83,15.17.84,19.33,0,7.83-1.67,7.83-1.67l-1.33-6.5L591,416l1.5.67-2.83,6,1.17,5.5,33.5-8.67L633,416l7.83.67L627.67,374l-24.33,5.83,4.83,18-2,.33-5-18.17-16,5.42-14.67,1.75L570,399.5l-2.5-.33.67-12-13.83.33Z" transform="translate(0 0.53)"/><path class="cls-4" d="M542.27,380.67c2.19.28,16.39,4,16.39,4H572l4.67-.79,1.17-29.71,4-17.67L544,331.33l-2,5.17v43.85A.31.31,0,0,0,542.27,380.67Z" transform="translate(0 0.53)"/>
<path class="cls-4" d="M535.13,331.33h2.38l2.38,5.17v44.13L522.75,374H521.5v1.63l18.38,7.75-8.62,42.13S479.44,413.38,479.5,413s2.5-11.25,2.5-11.25l20.13,11.38,5.13-.5.25-1.62h-4.75L482.5,399l-.5-9.87,3-2.12,3.5-4,2.63,5.88,15.75.88-.12-1.5-13.87-1-2.62-6,1.88-2.83,14.25-13.54Z" transform="translate(0 0.53)"/><polygon class="cls-4" points="482.17 386.28 487.83 380.95 503.58 365.12 532.58 331.37 477.75 336.7 482.17 386.28"/><path class="cls-4" d="M533.5,428c-.87,3.15-3.29,23.49-3.12,23.49s6.46,19.75,7,19.67,14.83-3.92,14.83-3.92L631,423.67l7-4.33-5-.83-42,12.17s-8.67,1.66-9.17,2-28.58-1.08-29-1S533.5,428,533.5,428Z" transform="translate(0 0.53)"/><polygon class="cls-4" points="500.92 420.78 531.08 427.87 528 452.62 536.33 474.45 521 479.37 500.92 482.7 494.92 444.12 500.92 420.78"/><polygon class="cls-4" points="498.67 420.78 490.58 445.87 495.75 460.2 470 453.03 478.92 416.12 498.67 420.78"/><polygon class="cls-4" points="470 455.87 496.08 462.2 499.08 482.7 478 483.45 462.92 481.7 470 455.87"/><polygon class="cls-4" points="510.38 483.45 524.23 481.37 537 476.41 540 483.45 535.38 485.41 523.38 502.16 517.38 507.66 514 498.53 510.38 483.45"/><polygon class="cls-4" points="540 485.16 536.33 486.91 530.37 495.41 536.33 510.78 534.75 510.78 529.13 497.28 524.23 504.53 518.5 509.16 520.38 514.28 518.5 515.16 516.88 510.53 508.25 517.03 502 523.91 503.38 524.66 549.63 508.28 540 485.16"/><path class="cls-4" d="M500,524.13l1.25-4.12,14.38-11.62L510.38,497l-1.87-14.08-20.12,2.33-1.25,30-1.25.38-1-1.5,1.88-28.62L464,482.92l-8.25,30.46,23,2.38,1.13,1.26-1.12.61L455,515s-2.56,8.94-2.25,9.13,13.63,2.75,13.63,2.75l-.37,2-14.12-2.23-1.79,9.59.35,7.88,2,4.13,5.63-5.78-.06-7.1,15.75-1.62Z" transform="translate(0 0.53)"/><polygon class="cls-4" points="453.55 550.87 457.75 557.89 485.01 552.2 519.69 538.23 575.11 510.53 598.67 495.02 662.81 489.47 657.73 469.18 633.27 477.7 592.69 489.89 581.59 497.1 566.4 504.53 553.48 506.76 550.25 511.2 493.62 529.95 476.23 536.06 461.27 537.91 459.65 545.72 453.55 550.87"/>
<path class="cls-4" d="M660,468.65l5.71,18.73,32.36-8.25s30.7-17.89,31.05-19.12-25.3-15.18-25.3-15.18L696.27,457l-9.77-6Z" transform="translate(0 0.53)"/><path class="cls-4" d="M766.1,377l-10,22.32L754.58,416l-25.45,36.13,4.68,3.85,24.65-23.29s11.64-14.35,12.42-16.2,5.24-10.51,3.88-14.43-3.67-19.64-3.1-19.83-1.17-6.68-1.17-6.68l-3.69-1.42Z" transform="translate(0 0.53)"/></g>   
 <g id="donbosco"><path class="cls-3" d="M136.5,367.5c-2,6.77,49,114,49,114l57-18s1-4,4-4l7-23s-1-5,0-7c0,0-31,1-33-1l-29-72S139.5,357.5,136.5,367.5Z" transform="translate(0 0.53)"/><path class="cls-3" d="M186.5,484.5l57-19,2,1,4,15-33,11,3,7s-6,3-7,6-9,18-9,18Z" transform="translate(0 0.53)"/><path class="cls-3" d="M219.5,493.5l2,4s26-8,29-8l-1-6Z" transform="translate(0 0.53)"/><path class="cls-3" d="M204.5,525.5s10-17,11-19c0,0,3-5,6-6l2-1s8,8,10,8v-2l-8-6,13-5,13-2,3,16-49,19Z" transform="translate(0 0.53)"/><polygon class="cls-3" points="206.5 530.03 236.5 518.03 240.5 518.03 233.5 553.03 218.5 560.03 206.5 530.03"/><polygon class="cls-3" points="243.5 517.03 255.5 513.03 257.5 521.03 275.5 559.03 227.5 581.03 219.5 562.03 236.5 554.03 243.5 517.03"/><polygon class="cls-3" points="228.5 583.03 275.24 561.39 286.24 588.39 239.5 607.03 228.5 583.03"/><polygon class="cls-3" points="240.5 609.03 262.5 600.03 280.5 638.03 293.5 653.03 305.5 664.03 285.5 682.03 261.5 651.03 252.5 636.03 240.5 609.03"/><path class="cls-3" d="M343,465.63v15.5l-3.37,25.25H304l-.62-9.81h-3.12l.75,10.69L257.75,511l-5.12-22.06,11-5.44-1-2-10,5.63L247.5,467.5a2.89,2.89,0,0,0,2-.87,5.32,5.32,0,0,0,1-2.12s62.94-1.69,63.25-1.75,19.13,1.75,19.13,1.75l-.87,6.25h1.88l.88-6.25Z" transform="translate(0 0.53)"/><polygon class="cls-3" points="301.42 510.53 303.92 521.62 315.75 537.78 332.83 559.28 307.58 578.62 288.75 588.03 275.5 554.62 258 514.2 301.42 510.53"/><polygon class="cls-3" points="334.58 560.03 342.25 570.62 335.5 576.45 334.58 580.28 341.08 589.53 342.58 588.03 337.33 581.03 337.58 577.87 343.75 572.95 361.92 594.7 364 600.03 351.67 611.03 339.28 598.03 337 600.87 350.5 619.87 327 643.37 316 630.03 304.17 617.03 289.67 590.2 311.17 578.7 330.33 563.53 334.58 560.03"/><path class="cls-3" d="M287.67,590.75s13.58,26.08,14.17,26.75S324.5,645,324.5,645l-17.33,16.75L293.5,649.5l-6.5-9-4.5-4-17-37Z" transform="translate(0 0.53)"/><path class="cls-3" d="M196.5,357.5c0,1,27,69,27,69h30s3-11,9-14l21-4-6-29,2-1-4-21-7,1-1-5Z" transform="translate(0 0.53)"/><polygon class="cls-3" points="434.33 479.78 460.38 483.45 449.88 522.91 367.5 511.16 373.75 471.28 434.33 479.78"/><path class="cls-3" d="M431.75,449.83c.38-.06,27,3.63,27,3.63l6.38.88,4.5-14.75L477,413.71l-18.25-3.37-5.37,7.75-13.62,13.58-11.75,7-.61,3.18,4.86,1.66Z" transform="translate(0 0.53)"/><polygon class="cls-3" points="429 453.53 425 459.41 426.25 461.66 430 462.53 430 467.91 456 471.28 459.13 458.03 457.88 456.78 429 453.53"/><polygon class="cls-3" points="424.25 439.78 414.75 446.16 406.63 456.53 406.63 472.78 432 477.03 433 470.66 427.63 469.66 428.38 464.41 424.38 463.91 422.13 460.2 426.75 451.74 430.25 451.74 430.63 446.41 425 444.66 424.25 439.78"/><polygon class="cls-3" points="404.63 457.03 404.63 473.03 345.13 465.03 345.13 458.91 353.13 459.28 367.5 458.41 390.13 459.03 404.63 457.03"/><polygon class="cls-3" points="404.63 454.87 401.63 455.87 403.13 445.66 411.38 446.66 404.63 454.87"/>
<path class="cls-3" d="M345.13,472.5c.56-.5,3.63-3.62,3.63-3.62l4-1.37,18.88,3.25L365,510.38l-23.12-3.75,3.25-25.79Z" transform="translate(0 0.53)"/><path class="cls-3" d="M248.33,459.67a31.42,31.42,0,0,1,2.17,3.08L292,460.5l6.25-.42,44.08,3.5,3.58-27.33-58.67,5.5-32.08-4.33Z" transform="translate(0 0.53)"/><polygon class="cls-3" points="256 435.7 259.17 426.12 263.92 417.62 267.33 415.37 304 409.62 353.08 402.03 355.42 402.03 356.67 405.12 346.33 435.28 313.08 437.78 286.33 440.2 256 435.7"/><path class="cls-3" d="M475.5,336.5l4,62-1.75,9.5-4.92,2.33-11-1.33-28-3.83s-15.17-.58-15.33,0-13.33.5-13.33.5l-5.5-1.67-3.5-5.83V368l2.17-25.5Z" transform="translate(0 0.53)"/>
<path class="cls-3" d="M424.17,407.17l31.33,3.17v1.5l-10,11-10.33,9.5-11,5.29-10.23,6.21-13.1-1.33v2.63l-1.17,10.21-9.17,1.17-12.83-1.17-32.54,1.17s2.79-20.54,2.79-20.83,6.5-17.42,6.5-17.42l4.5-13.83,2.67-5.83,3.83-3.42,12.67-.83,7.42.5,3.17,3.83,7.5,7.08,4.58,2.42,5.88-.83Z" transform="translate(0 0.53)"/><path class="cls-3" d="M380.5,515.75l56.75,6.63v5.13l4.74,3h2.17v16s-42.46,15-43,15.75S362,590.75,362,590.75L337,559.5l36.75-30,1.13,3.25-1.62,8,4.25,4,2-2.5L376.25,540l1.5-8-2.87-5.75Z" transform="translate(0 0.53)"/><polygon class="cls-3" points="303.5 510.53 305.5 518.03 316 534.03 324.75 526.03 327 528.03 318.25 536.78 334.25 556.78 353.75 542.78 345.92 532.53 348.5 531.03 356.67 540.28 369.88 529.22 373.06 526.53 375.06 515.72 337.81 509.28 329.81 508.53 303.5 510.53"/><polygon class="cls-3" points="270.33 353.2 271 357.03 277 357.03 281.17 379.03 332 372.7 331.33 363.87 336.42 363.03 358.67 360.53 358.67 346.53 270.33 353.2"/><path class="cls-3" d="M360.81,344.92c.19.92.5,14.58.5,14.58l-.25,2.75-27.31,2.08,1.41,9.08L392,369.33l2.5-1.33,1.67-24.67Z" transform="translate(0 0.53)"/><path class="cls-3" d="M281,383.5c.5-.25,2.08-2.08,2.5-2s50.25-5.83,50.25-5.83h4.75l52.67-4.33,3.33,1V387l-3.17,3H376.5l-.33-3.33-27.33,1.83.33,1.5,24.67-.83v2l-10.74.67-4.42,4-72.5,11.83Z" transform="translate(0 0.53)"/><polygon class="cls-3" points="364 593.08 401.17 566 442.84 549.28 449.14 552.14 453.55 558.65 410.3 577.91 374.19 607.99 364 593.08"/><polygon class="cls-3" points="467.33 455.87 460.92 481.37 434.33 477.03 435.25 470.78 457.67 473.53 461 459.03 461.08 457.03 462.5 456.2 464.92 456.78 467.33 455.87"/><polygon class="cls-3" points="439.33 523.34 439.33 526.65 442.96 528.86 445.47 528.86 445.47 547.98 448.89 548.78 447.18 544.45 447.28 534.9 449.14 525.36 439.33 523.34"/></g>    
 <g id="gries"><path class="cls-5" d="M705.44,157.63a1.86,1.86,0,0,0,1.81,1.75,7.4,7.4,0,0,0,3-.37L720,181.38l-20.32-3.87,3.07-17.75Z" transform="translate(0 0.53)"/><polygon class="cls-5" points="701.25 160.03 697.63 178.03 685 174.91 686.88 170.03 692.83 163.41 697.63 160.03 701.25 160.03"/><path class="cls-5" d="M598.13,153c.06.44,0,2.75,0,2.75L596,167l18.13,5.25L611,185.13s-12.87-1.31-15-1.5-9.12-1.56-13.37-1.12-28.12,9.25-28.12,9.25l-6.62-13.12,5.63-3.5,3.75-2.75L563.88,145Z" transform="translate(0 0.53)"/><path class="cls-5" d="M562.25,145s-5.12,20-5.62,21.13-2.12,6.25-2.12,6.25l-6.62,4.25L538.38,157l-3.87.13v1.25l2.13.63,1.5,3.13-7.5,3L522,174l-6.75-6.62-3.25-1.5-6.25.25,8-17.5,9.63-5,2.13-.87,8.5-.87,8.75-2.62Z" transform="translate(0 0.53)"/><path class="cls-5" d="M522.88,175.75l7.63-7.37,8.63-4.37,13.75,28.63s-7.25,3.44-7,3-6.62-7.87-6.62-7.87L534,184l-3,.38Z" transform="translate(0 0.53)"/><path class="cls-5" d="M610.88,187.75c-.06.31.75,12.63.75,12.63l-29.12-.87L561,204.75,555.38,194s20.56-7.37,23.25-8.25S610.88,187.75,610.88,187.75Z" transform="translate(0 0.53)"/><polygon class="cls-5" points="625.17 142.37 621.67 156.7 653.75 166.37 657.5 158.16 647.83 151.2 640.83 146.7 625.17 142.37"/><path class="cls-5" d="M578.67,251.83,600.83,300l-6,1.33-7.5-17.67-1.83.33-.67,1.67s7.58,15.75,7.5,15.67-12.83,0-12.83,0l-13.83,4.17,1.67-14.17-7.5-.67-5.83,4v2a26.78,26.78,0,0,0,2.83-.67c.25-.17,3.17-2.67,3.17-2.67h4l-.67,13L543.83,319l-5,1.17-2.5-22L532,288.5l1.5-6L546.67,270l18.5-11.5Z" transform="translate(0 0.53)"/><path class="cls-5" d="M538.67,323.17l6.17-1.67,10-7.83,13-7.17,12.33-1.83L600.83,303l7.33,11.33-.83,3-7.33-.5v1.67l6.83,1.67S603.75,336.5,604,336.5s-64.67-8.17-64.67-8.17Z" transform="translate(0 0.53)"/><polygon class="cls-5" points="610.17 315.03 613.33 313.53 617.88 314.28 617.17 321.53 615.13 326.2 616.17 334.2 613.33 338.2 607.5 337.03 610.17 315.03"/><path class="cls-5" d="M488,275.33l1.83-.83-6-16.5,3-4.17L511,244.17,522.88,231s9.54-10.25,10.13-10.17,24.67-13.33,24.67-13.33l9.83,18.83-29.62,13s-2.79,1.5-2.37,2.08,2.38,10.42,2.38,10.42h2.46l-1.67-9.17,30-13.67,9.17,19.67-26.5,14.5-30.5,24.17S474.92,313.67,475,313.17s-3.33-21.33-3.33-21.33L466,287.17l-7.83-4,3.83-4.33-1.33-10.67,7.5-1.17,13.17-6.66Z" transform="translate(0 0.53)"/><path class="cls-5" d="M525.5,287.67s3.92,1.75,4.17,1.75S534.5,301,534.5,301l2.33,14.33L525.5,305.5l-1.83,2.5,13.17,10.17V328l-59,4.83-2.33-16.5Z" transform="translate(0 0.53)"/><circle class="cls-5" cx="529.54" cy="286.07" r="1.04"/><polygon class="cls-5" points="456.08 286.12 458.75 286.12 466.33 289.37 469.92 292.95 472.83 315.2 428.5 318.7 428.25 316.2 434.58 309.45 444.58 296.62 449.17 290.45 456.08 286.12"/><polygon class="cls-5" points="472.83 316.95 475 334.12 399.92 340.37 401.17 337.2 399.67 323.37 472.83 316.95"/><polygon class="cls-5" points="401.92 287.62 421.42 319.12 426.25 319.03 427 314.45 432 310.03 447.33 288.95 454.42 284.95 455.25 282.87 459.5 279.2 458.17 268.12 451.75 269.03 435.08 274.53 424.67 277.37 413.42 282.62 414.75 285.37 421.17 284.37 421.58 286.87 414 287.62 411.5 283.53 401.92 287.62"/><path class="cls-5" d="M399.67,287.67c-.17.67,11.83,18.17,11.83,18.17l-15.33,1.5,1,11.25h1.65l-.44-9.33,14.56-1.31,7.19,11.44-59.31,4.94s3.34-11.28,3.37-11.44.5-8.5.5-8.5L376,295.44Z" transform="translate(0 0.53)"/><path class="cls-5" d="M361.31,302.94c.47-.12,7.5-3.69,7.5-3.69l6.62-6.17,26.48-8.27,22.46-10.06,8.5-1.94-4.19-14.69,1-1.12,1,.25,4.6,14.63,9.94-3.19,8.56-2.69,7.25-.06s21.31-9.56,21.44-10.19a29.52,29.52,0,0,1,2.75-3.92l22.25-9.58L518,234.5l-9.5-13,9.5-6.75-8.31-13.32L520,196.5l4.67,4.58,1.58-1.58,5,6.25L544,196.5l-5.25-6.25-6-3.92-2.67-.17L515,169.67l-3.92-1.29-5.33,24.38-6.67,3.42-.75-2.08,5.25-2.83,5.33-22.5-4.67-.37-3.58,1.54L491.08,171l-18.83,15,1.83,7.33,6.33-3.42,2.33.58-.17,1.25-2.08.5-6.75,3.41-1.58-1-1.83-7.08-27.08,20.33,2.67,12.58-2.17.42-2.08-11.67L410.25,228,400,240.42l-10.33,15.17,8.08,6.58L396,263.5l-7.08-6.17-14.08,24.5-10.5,14.25Z" transform="translate(0 0.53)"/><path class="cls-5" d="M511.33,221.83c.33-.5,6.67-5.5,6.67-5.5l4.17,1.88,7.38-5.88-1-4.17H534l11.67-9.83,6.17,9.17-24.5,14.33-7.83,10.33Z" transform="translate(0 0.53)"/><polygon class="cls-5" points="512.33 203.37 519.83 214.53 522.88 215.78 527.5 211.7 526.33 208.03 519.17 199.53 512.33 203.37"/><path class="cls-5" d="M460.17,128.5c.75.08,19.75-6.08,19.67-5.67s5.83,14.5,5.83,14.5h1.83s-5.25-14.37-5.17-14.52,13.5-4.48,13.5-4.48h9.92l3.75,1.17,8.5,11-14.33,5.83.83,2,7.83-3.33,1,2.67-3.17,1.58,1.17,5.75-8.5,21.67-13.75,1.71h-3.42L473.33,153l.83-5L472,143.35l-5.67-4.1Z" transform="translate(0 0.53)"/><path class="cls-5" d="M337.58,344.92c0-.25-1.17-14.58-1.17-14.58l2.33-2.21,3.25-.87,55.5-4L398.75,337l-2.08,2.83Z" transform="translate(0 0.53)"/>
<path class="cls-5" d="M324.5,324.92l8.75-8.08L358.5,306.5s4.79-2.12,4.58-1.83-.67,7.58-.67,7.58L359.09,324l-17.92.91-5.33,2.17-1.67,2.33,1.58,15.5-30.25,2.17-1.08-15.5,12.42-.83Z" transform="translate(0 0.53)"/>
<path class="cls-5" d="M304.42,328.83c.5.08,12-.5,12.25-.71L332,314.83l-10.67-8.17-18.5,1.83Z" transform="translate(0 0.53)"/>
<path class="cls-5" d="M333.75,313.17,320,302.94l-22-14.6-7.67-2.75-15-20.08,9.83-7.33L291.5,252l1.33-3.17-1.5-5.67,28.5-14.33,3.83.83,23.17-23.5,14.48-11.5,15.52-15.5L406,159.5l3.5-6.17,24.83-21.17,8.5,1.33,12.5-3h3.5l6.5,11.33,4.33,2.83,1.83,3.17-1.5,4.33,3.67,5.77-3.17,3.23,1,1.67,3.33-2.17,10,10.83-23.67,20.33-10.5-13.33-1.5,1.83,10.33,12.83-42.5,28-9.5,5.17-9.67,14.5L389,251.33l-23.5,39.83-5.67,7.17-1,5.5s-16,7.5-15.67,7-.5-10-.5-10l1.5-2.67-.33-4.17,2-.92-.67-1.92L342,293.08l-.67,5.75-1.33,3,1.17,9.13Z" transform="translate(0 0.53)"/><polygon class="cls-5" points="552.88 139.78 598.83 151.2 602.33 137.87 604.17 137.87 600.67 151.87 619.33 156.7 625.17 135.53 633.94 118.87 631.33 116.87 613 125.87 604.17 128.7 597.33 133.2 593.41 135.37 588.33 136.78 574.17 131.03 569 131.03 552.88 139.78"/><polygon class="cls-5" points="593.41 87.37 600.17 82.87 614.13 79.2 621.67 79.2 627.67 75.7 652.13 105.37 605.33 126.2 598.33 113.7 596.5 114.53 602.83 127.03 593.41 133.53 589.67 135.03 576 129.53 578 127.53 585.5 124.37 584.67 122.37 578 125.2 580.17 111.87 591.5 102.03 594.83 111.53 597.17 110.2 593.41 98.7 595.17 95.87 593.41 87.37"/><polygon class="cls-5" points="638.83 112.87 653.75 107.7 669.5 124.03 680.17 131.37 662 153.53 659.5 155.87 644.08 145.53 638.83 143.2 626.33 139.78 638.83 112.87"/><polygon class="cls-5" points="592.67 84.7 597.67 81.37 611 77.87 614.13 76.7 621.67 76.7 626.33 73.7 590 22.2 579.83 26.53 570.83 33.37 556.67 47.03 569.83 62.53 592.67 84.7"/><polygon class="cls-5" points="554.67 49.03 572.5 68.2 591.5 86.87 592.33 94.03 590.17 100.7 586.17 104.2 581.67 107.7 578.67 109.37 576 125.37 573.5 128.7 570 128.7 549.67 138.53 522.17 131.03 511.67 118.87 507.17 105.37 497 94.7 520.33 78.2 524.33 76.53 526.5 77.37 526.17 85.7 522.17 89.53 523.67 90.7 526.83 88.2 528.83 84.7 528 77.37 527.17 75.03 539.5 65.7 554.67 49.03"/><polygon class="cls-5" points="681.83 132.7 693.13 140.7 683.33 149.7 678.33 145.53 677.5 147.03 681.5 151.37 679.17 154.37 671.33 148.7 670.5 150.2 687.88 165.03 685 168.03 683.33 174.03 657.5 167.2 659 159.37 664 155.87 681.83 132.7"/><polygon class="cls-5" points="680.58 155.87 683.5 152.2 693.13 160.91 689.83 163.53 680.58 155.87"/><path class="cls-5" d="M685,150l9.5,9,3.5-2.17,4.33.79,1.5-1.46a4.26,4.26,0,0,1-.75-1.67c-.21-1,.75-3.67.75-3.67l-1.83-.08-7.58-8.92Z" transform="translate(0 0.53)"/><path class="cls-5" d="M708.33,147.58c-.54.17-3.21,1.63-3.58,1.75a10.48,10.48,0,0,1-2,0l-7.5-9.5-23.5-18.67,15.75-18.75-1.42-1.17L670,120.58l-11.08-10.25,39.33-45.5L720,77.92l-7.67,15.25,1.83.58L722,78.17l16.58,7.75Z" transform="translate(0 0.53)"/><polygon class="cls-5" points="703.69 66.97 739.69 84.78 746.75 64.41 751.13 45.53 753.75 17.41 752 0 705 0.53 709.5 9.16 722.88 4.41 727.5 6.28 727.5 11.91 725.63 11.28 725.38 7.66 723.25 6.28 709.88 11.66 704.63 19.41 703.13 18.03 707.88 11.28 702.63 0.53 664.88 0.53 672.13 24.78 678 32.91 694.88 24.41 695.5 25.91 679.63 34.66 686.5 46.66 704.75 32.41 706 33.66 687.5 48.28 692.5 57.28 697.13 62.16 706.38 62.16 724.75 44.41 725 42.39 712.63 29.28 713.88 28.03 726 40.53 737.13 29.16 732.75 24.78 734.25 23.28 740.25 29.28 727.88 42.39 726.75 45.91 703.69 66.97"/><polygon class="cls-5" points="662.25 0.53 670.38 25.91 677.63 35.28 685.13 49.03 680.17 51.16 681.13 53.45 686 51.16 696.25 63.91 691.75 69.03 680.17 54.91 671.75 60.91 680.88 72.91 686 76.66 670.88 93.78 662.25 81.78 671.63 74.41 667.5 69.03 664.88 69.16 658.92 73.91 654.13 68.16 669.25 60.53 668.25 58.28 653.25 66.28 649.63 59.53 639.38 51.91 638.63 53.45 648.5 61.78 654.13 71.91 643.38 80.16 645 82.16 655.5 74.03 669.25 95.78 657.25 107.64 634.63 80.16 644.08 73.16 643.38 71.78 633.25 78.78 591.5 21.03 608.38 13.66 630.13 0.53 662.25 0.53"/><polygon class="cls-5" points="674.56 61.35 679.31 57.41 690.38 71.03 687.56 74.97 681.31 70.6 674.56 61.35"/><polygon class="cls-5" points="660.96 74.97 662.75 77.33 668.58 72.87 666.83 70.83 665.75 70.99 660.96 74.97"/><polygon class="cls-5" points="495.88 91.91 520.38 75.03 527.5 72.28 542 60.03 552.88 46.66 547.13 40.91 540.13 37.03 537 45.66 516.63 52.66 488.13 59.03 488.63 75.7 495.88 91.91"/><polygon class="cls-5" points="487.5 56.53 513.75 51.28 535.88 44.16 538.5 36.16 523 30.66 517.13 30.66 502.13 37.03 484.25 43.6 487.5 56.53"/><polygon class="cls-5" points="482.63 44.66 485.75 58.41 486.5 76.28 494 93.78 483.75 101.66 471.25 118.28 470.25 124.03 457.88 127.41 457.88 123.53 461.38 118.03 465.63 100.78 468.25 95.16 467.75 78.03 463.25 62.41 470.5 52.91 470.63 50.91 482.63 44.66"/>
<polygon class="cls-5" points="494.88 95.16 498.63 100.78 504 105.28 507.88 116.28 502 116.28 494.88 116.28 487.25 117.66 472.5 123.66 473.13 118.87 482.38 106.78 494.88 95.16"/><polygon class="cls-5" points="441.5 83.28 447.75 81.28 449.13 79.41 465.75 79.41 466.88 93.78 464.13 98.53 462.75 105.16 455.63 105.16 453.83 88.95 452.5 87.87 451.75 88.53 454.19 105.7 448.5 106.12 447 101.12 450.42 99.87 450.25 98.62 449.17 98.37 446.25 99.28 441.5 83.28"/><path class="cls-5" d="M448.75,108.88h6.08l1.42,12.21-2.92-1.42-3-5.25Z" transform="translate(0 0.53)"/><path class="cls-5" d="M456.25,108.44h5.44l-2.25,8.44s-1.94,3.69-1.94,3.5-.37-3.87-.37-3.87Z" transform="translate(0 0.53)"/><path class="cls-5" d="M456.25,123.13c-.06.22.25,4.47,0,4.31s-11.75,2-11.75,2L438,115l-1.81,1,6.12,13.94-4.37-.31-21.06-7.17,1.56-5.21,9.06-1.5.81-.77-.56-1.23h-.81l-8.56,1.5s-4.69-16.12-4.44-16.12,14.69-3.62,14.69-3.62l.19-1.44-1.12-.69-5.81,1.44-.75-3H420l-.44.87.94,3-13.94,3.62-.94-1.19,1.13-15.81s16.41-3.59,16.63-3.44,8.28-.5,8.69-.56,12.06.56,12.06.56l.56.69-5.19,1.75-.37,1.81,4.19,13.38-.69,1.25,5.75,16.66,3.81,6.67Z" transform="translate(0 0.53)"/><path class="cls-5" d="M458,50.26c.09.54,1,2.86,1,2.86l2.37,1.31,1.56,4.87-1.56,2.94,4,13.56v1.25l-32.44-.81-.87-7,4.88-6.62L435,60.94l-5.37,7.69.88,7.81-6.44.62L418.44,59.5l-1.81.5,5.63,17.06s-17.56,4-17.5,3.81-1.56-6.06-1.56-6.06l-1.62.5,1.5,6-4.56,1.5.69,1.62,5.44-1.69-.75,16.88,2.75,1.81,5.63-1.81,4.31,16.88-2.06,5.63s-7.56-2.5-7.5-2.87-15.87-1.5-15.87-1.5L365,115.38,351.5,115l-4.87-2.37-9.87-1-6.25.75-2.62-.5-3,.63-17.37-3.25s-3.94-.62-3.87-1-9.37-.62-9.37-.62l-5.62,2.63s.66-35.69.66-36,13.72-12,13.72-12l11.63-3.37,1.25-4.37L328,50.38l14.13,3.38L391.25,43.5l9.5,9s11.44-3.94,11.88-3.75S426.75,54,426.75,54s8.56-2.94,9-3,2-.37,2-.37l1.75-2.5,15.63-4,2.75,1v1.29l-1,1.67s-.39.92-.57.92-4.77.67-4.77.67l-.42,1.75,1.83.25,3.68-.9C457.54,50.48,458,50.21,458,50.26Z" transform="translate(0 0.53)"/><path class="cls-5" d="M453.71,46.91" transform="translate(0 0.53)"/><polygon class="cls-5" points="287.67 113.16 295 112.03 352.63 117.66 339.13 121.28 328 124.16 310.75 133.03 300.88 137.16 286.69 139.41 287.67 113.16"/><polygon class="cls-5" points="206.17 268.87 217.67 268.87 221.5 264.2 241.33 251.53 272.33 266.37 290 288.2 318.5 305.17 286.83 308.37 287.33 310.37 300.5 309.53 302.17 330.7 289.17 331.53 289.33 333.03 302.17 333.03 302.83 347.62 242 352.53 238.5 319.87 236 320.2 240 354.03 228.33 354.03 210.33 314.87 208.17 315.37 226.17 355.03 206.17 355.87 206.17 268.87"/><path class="cls-5" d="M356.5,118.33l-9.5,2.75L351.75,132,349,133.25l-4.25-11.12-15.25,3.67-12.92,5.46-14.08,6.67,3.08,17-1.92,3.67-11.17,2.75-.67-1.42L302.17,157l1.75-1.83-4.08-16.29-24.17,5.38L265,148.92l-8.5,8.17-14.17,5.75L235,165.75l-7,4.33-9.58,12.33-10.25,9.08-1.08,35,35,22.58,30.75,15.25,7.67-4.58,8.42-8.75,1.5-3.83-.75-5.5,28.17-14.33-14.58-27-3.17-1-3.75.83-9.83,7.08-.42,2.83,3.58,5.42,4.33-2.83.83,1-6.08,4.08-5.17-8.17-15.17,11.33-1.08-1.67,28.58-21.17,4.08-1,4.25,1.25,15.67,27.83,2.75.17,14.42-13.75L349,200.83l12.75-9s15.54-15.46,15.25-15.42-17.83-33.58-17.83-33.58l-10.83,4.58-1.08-1.83L358.92,141h2.4l17.52,33.94,26.33-17.58,2.92-6.83,24.25-18.83L431,129.94l-25.82-7.81-35.92-3.79Z" transform="translate(0 0.53)"/><path class="cls-5" d="M611.63,202.38l-20.5-.95h-7l-14.75,3.32-7.87,2.58L580,248.88l19-5.75,4.25-.62.38,1.38L581,250.75l17.25,38.67,9.38-3,.25,1.75-9,3.13s10.31,21.31,10.38,21,4.13-1.37,4.13-1.37,4.63,1.44,4.5.88S611.63,202.38,611.63,202.38Z" transform="translate(0 0.53)"/><path class="cls-5" d="M713,157.63a8.18,8.18,0,0,0,1.22-4.79c-.14-1.18-1.55-3.75-2-4.79-1.38-3.21,28.53-58.55,28.53-58.55l8.57-23.84,4.44-22.38,2.72-27.51L755.37-.53h41.55l-4.16,13.76-.1,11.91-7.29,19.48-11.19,23.6-16.61,33.65L736,160.38l.27,21.55L723,181.06Z" transform="translate(0 0.53)"/><polygon class="cls-5" points="721 276.53 741.17 276.53 747 299.37 721 300.2 721 276.53"/><polygon class="cls-5" points="717.67 301.53 718.33 328.03 686 318.37 691.33 296.53 702.17 301.7 710.83 302.53 717.67 301.53"/><polygon class="cls-5" points="692.83 294.37 702.17 299.2 710 300.2 718.33 299.37 715.33 229.28 712.5 229.28 705.58 250.53 698.67 282.53 692.83 294.37"/><polygon class="cls-5" points="717.6 215.37 721.1 273.7 728.43 273.7 728.43 269.41 730.76 269.41 730.76 273.7 740.43 273.7 730.76 228.03 730.76 197.03 724.43 196.37 721.1 198.53 717.6 215.37"/><path class="cls-5" d="M680.67,265.67h2.83l4.83-17.83L702.17,251l-7.67,35.5-3.83,6.67-7,23.17-9.5-3.17L679.5,296l-.83-10.5s1.75-9.92,1.83-10.33-1.83.17-1.83.17L677,285.5l.67,8-5.33,18.25-8.17-1.42L663.5,313l19.33,5.33L677.5,345.5l-23.83-2.17L656,332.5h-2.33l-2,10-30.67-4V305.17l9.5-.5-.67-18.17-1.33-1.67-9.17.67-.83-14.75,21.5-.92,27,3.33-6.67,27.17,1,2.73,2.17-3.4,5.67-25a30.7,30.7,0,0,1,0-3.92c.17-.08,5-13.92,5-13.92l2-23.5,13.33,1.17Z" transform="translate(0 0.53)"/><path class="cls-5" d="M654.5,194.56c.31,0,20,.69,20,.69v34.5l-22.37-3Z" transform="translate(0 0.53)"/><path class="cls-5" d="M651.13,228.75c.56,0,22.88,4.58,22.88,4.58l-2.37,26.42-5,11-19.75-3.12Z" transform="translate(0 0.53)"/><path class="cls-5" d="M689.88,177.5c.81-.06,30.13,8.63,30.13,8.63l3,3.25-2.12,5.88-33-3.06Z" transform="translate(0 0.53)"/><polygon class="cls-5" points="656.5 170.03 682.5 176.16 678.88 193.16 652.13 190.91 656.5 170.03"/><path class="cls-5" d="M620.75,160.38c.38.06,33,8.13,33,8.13l-4,21.38L614.13,186Z" transform="translate(0 0.53)"/><path class="cls-5" d="M615.13,188.25V200.5s4.19,1.19,4.75.88,5.13-1.75,5.13-1.75l11.88-7,.63-2.12Z" transform="translate(0 0.53)"/><path class="cls-5" d="M684.83,319.75s34.25,10,34.08,10.17.58,16.42.58,16.42H679.67l1.25-9.17Z" transform="translate(0 0.53)"/><polygon class="cls-5" points="691.83 235.03 707.92 237.2 703.33 248.37 689.5 245.87 691.83 235.03"/><path class="cls-5" d="M676.83,231,709,234.5l2-7-6.83-2.83-5.46-2.17.42-7.5s-3.94-2.06-2.12-6,5.44-.37,5.44-.37l5.48-3.69,7.52,3.19s2.22-10.37,2-10.31-33.31-2.56-33.31-2.56l-.75,11.19-7.12-.44Z" transform="translate(0 0.53)"/><path class="cls-5" d="M638.5,193.25s-12.69,9.13-13,9-1.62,1.75-1.62,1.75L635,216l-1.87,1.5-12.5-14.62-5.5.25,3.38,64.25h26.25l7.38-72.12Z" transform="translate(0 0.53)"/><polygon class="cls-5" points="715.17 210.37 712.33 225.2 700.67 221.87 700.67 215.7 703.17 213.37 703.83 210.37 707 207.87 715.17 210.37"/><circle class="cls-5" cx="699.68" cy="210.87" r="1.63" transform="translate(-19.38 341.68) rotate(-27.04)"/><polygon class="cls-5" points="721 302.53 747 302.53 762.67 343.7 723 346.87 722 331.37 732.67 335.7 752 333.87 753 332.2 750.67 331.87 735.33 333.37 722.17 328.03 721 302.53"/><polygon class="cls-5" points="723 186.91 735.03 187.66 730.39 195.09 724.16 195.09 725.92 191 723 186.91"/></g>
 <g id="oltrisarco"><path class="cls-6" d="M239.25,781.25l7.5,6.5v1.17h-1.33l-7.5-6.33s-9,13.75-9.25,14.67a17.06,17.06,0,0,0,0,3.33L276,837.08l1.75-.5,24.17-29.75s-18-12.33-18.42-12.33-5.19,1.5-5.19,1.5l-17.39-10.25-1.67-4.5,1.33-5.42-11.08-6.25-1.92-.33Z" transform="translate(0 0.53)"/><polygon class="cls-6" points="304 827.37 323.17 842.7 310.33 858.87 308 858.87 290.17 844.53 304 827.37"/><polygon class="cls-6" points="297.38 827.37 292.88 833.28 295.44 835.28 300.31 829.1 297.38 827.37"/><path class="cls-6" d="M291.75,834.19s-4.69,6.59-4.5,6.62a20.89,20.89,0,0,1,1.88,1.77l5.13-6.58Z" transform="translate(0 0.53)"/><path class="cls-6" d="M297.25,820.94c.16,0,27.38,19.81,27.38,19.81s22.16-50.66,22.19-50.81-.72-.47-1.19-1.06a2.54,2.54,0,0,1-.37-1.81c0-.2-20.12-8.25-20.12-8.25Z" transform="translate(0 0.53)"/><path class="cls-6" d="M346.13,785.13a4,4,0,0,1,1.31-1.06,3.74,3.74,0,0,1,1.63,0s16.78-42.19,18.12-42.81a18.41,18.41,0,0,1,4.31-.92l19.42,8.08,1.75,2.17v2.83L375.25,794.5a1.59,1.59,0,0,1,1,1.25c.29,1.08-.29,1.79.17,2.08s17.83,7.08,17.83,7.08,3.88-7.21,3.42-7.75-2.08-1.71-1.42-3.58,1.38-1,2.25-3.25,12.58-30.08,13-31.17.25-2.58.75-4.42,3-3.33,3-7.08,1.47-5.25,1.47-5.25l5.2-2.08,8.58-19.08-3.25-1.33-5.75,14-4.33,2.75-50.5-9.92-4.17.17s-36,49.71-35.92,49.75Z" transform="translate(0 0.53)"/><path class="cls-6" d="M368.42,743.25s0-1,1.33-1.08a4.9,4.9,0,0,1,2.58.54c.29.13,16.88,7,17.17,7.29s1.5.29,1,2.25-17.08,41.33-17.08,41.33H371.5s-1.33,1.21-1.5,1.33-17.33-7.17-17.33-7.17-.34-2.42-1.42-2.92S368.42,743.25,368.42,743.25Z" transform="translate(0 0.53)"/><path class="cls-6" d="M348.33,790.5a4,4,0,0,0,2-.2,3.77,3.77,0,0,0,1.26-.8l17.5,7.58a2.79,2.79,0,0,0,.42,1.67,3.21,3.21,0,0,0,1.42,1.42l-24.67,58.17-19.67-16.5S345.78,796.55,348.33,790.5Z" transform="translate(0 0.53)"/><circle class="cls-6" cx="348.91" cy="787.94" r="1.16"/><circle class="cls-6" cx="372.88" cy="798.16" r="1.16"/><path class="cls-6" d="M372.13,800.81a3,3,0,0,0,1.91,0,8,8,0,0,0,1.66-1.31l17.75,7.63-5.94,14.69h-3.19l-15.56,37.12,1.88,4.06s-2.72,5.91-2.62,5.75S349.81,862,349.81,862l-2.44-2.12Z" transform="translate(0 0.53)"/><path class="cls-6" d="M309.92,860.42l2.25-1.08,12.5-15.92,24.08,20.25,18.17,6.58-14.08,33.33-37.25-29.33-5.67-.75s-19-8.5-19.75-8.75a1.68,1.68,0,0,0-1.67.17c-.37.29-.72,1.11.33,1.56l20.15,8.6s5.32.75,5.38.73,37.52,29.63,37.52,29.63l-12,28.37L245,894.56l10.63-12.37-1.19-1.44,16.31-17.5L282,840.75s36.79,29.13,37.19,29.52c.86.84,2.26-.23,1.76-.92Z" transform="translate(0 0.53)"/><path class="cls-6" d="M368.92,871.17,359,894.25s25.5,20,26.08,20.67.29.71-.92,2.92-1.44,3.54-2.29,3.13-16.19-13.5-17.42-14.33a24.29,24.29,0,0,1-3.17-2.46c-.29-.37-.17-2-.17-2L356,900.54l-6.87,16,46.33,19.29L418,884.75Z" transform="translate(0 0.53)"/><polygon class="cls-6" points="358.17 896.37 360.42 898.33 360.71 901.03 356.88 899.37 358.17 896.37"/><polygon class="cls-6" points="362.42 899.78 362.71 903.62 381.75 918.66 383.13 916.41 362.42 899.78"/><path class="cls-6" d="M419.88,885.38l-22.25,50.46L416,944.5s2.3-10.48,2.59-11.78.33-1.87,1.28-1.69.91.58.59,2S418,945.44,418,945.44l9.28,3.75s1.22-3.14,1.41-3.72.87-.62,1.94-.44,11.84,1.28,11.84,1.28,1.42-.16.88,1.19-3,7.19-3,7.19l6.09,2.5,11.68-34.44s-19-10.08-19.29-10.37a1.23,1.23,0,0,1-.23-1.35c.26-.44.46-.73,1-.52S459,920.83,459,920.83l8-21.67Z" transform="translate(0 0.53)"/><polygon class="cls-6" points="430.25 947.6 432.94 947.6 431.59 951.66 428.88 950.6 430.25 947.6"/>
<polygon class="cls-6" points="434.81 947.6 437.19 947.91 435.13 952.91 432.94 952.22 434.81 947.6"/><polygon class="cls-6" points="438.81 948.1 441.44 948.1 438.81 954.66 436.44 953.53 438.81 948.1"/><path class="cls-6" d="M467.69,902.25l10.69,2.56-.56,2.5L471,920.13l.13,3.56s-5.31,14.53-5.37,14.62-9.87-4.19-9.87-4.19Z" transform="translate(0 0.53)"/><path class="cls-6" d="M469.81,939.63l-2.12-1.31,5.12-13.56v-4.06l6.81-13.19.63-2.69,2.69-.87,38.76,11.36a.66.66,0,0,0,1-.39,1.35,1.35,0,0,0-.25-1.33l-39-11.7-4.33,1.33-10.83-3L476,873.42s18.13,6.08,18.88,6.46,1.08.52,2-1S507,865.33,507,865.33s21.46,8.08,22.25,8.33,1.28.19,1.52-.44.07-1.07-.94-1.46l-23-8.77h-.87l-10.56,14.75L479,872.5l7.88-23.25,17.31,5.5,2.19-.19,51,17.25v5.35L541.17,906l-54.33,33.63-8.46-1.31Z" transform="translate(0 0.53)"/><polygon class="cls-6" points="370.41 869.87 418.67 883.53 424.75 865.12 378.08 849.62 370.41 869.87"/><path class="cls-6" d="M426.83,864.67l-6.17,18.92,46.46,13.58.56-2.73-2.19-2.6,2.19-8.33,3.56-1.92.67.25s.71-1.83.75-2.08S426.83,864.67,426.83,864.67Z" transform="translate(0 0.53)"/><polygon class="cls-6" points="469.44 885.16 471.41 884.22 468.66 893.1 467.53 891.88 469.44 885.16"/><path class="cls-6" d="M452.88,871.17l19.79,6.33.58-3.17-1.84-2.71L481,842l2.38-1.75h1.88l8.88-31.37,2.13-1s.81-2.06.88-1.62-17.5-5.62-17.5-5.62l-2.25,1s-7.12,16.94-6.75,16.88a44.08,44.08,0,0,1,4.38,1.13l3.37-9.12,1.13-.5.88,1.13s-6.87,20.5-6.62,20.13-1.08.88-1.08.88l-.67-1.87,2.5-8.25-5-1.62Z" transform="translate(0 0.53)"/><path class="cls-6" d="M499.25,807l-.75,2.25,1.5,1.38s-7.94,26.44-7.87,26.75,16.5,5.19,16.5,5.5,10.06-29.19,10-29.5S499.25,807,499.25,807Z" transform="translate(0 0.53)"/><path class="cls-6" d="M500.25,804.92l19.13,5.83,12.25-36.87-10.25-2.37h-6.12s-1.56,2.5-2.72,2.63a9.18,9.18,0,0,1-2.41-.12L503,800.63l-2,.63Z" transform="translate(0 0.53)"/><path class="cls-6" d="M507.13,769.38a3.21,3.21,0,0,0,0,2.13,4,4,0,0,0,1.44,1.44L497.94,804.5s-16.81-5.75-17.81-6-2.37-1.22-3.56.19-2.25,1.13-2.25,1.13l-17.56-6,10.13-33.94Z" transform="translate(0 0.53)"/><path class="cls-6" d="M464.63,759.88l-9.62,33h-2.12l-1,1.38L475,801.63l-24.75,68.75-21-6.87s4.06-15.87,4.38-16.75.59-2.12-.37-2.37-1.62,2.06-1.62,2.06l-4.56,16.31-28.44-9,2.81-8.69s.06-.59-.94-.94a.9.9,0,0,0-1.25.56l-2.5,8.25-17.69-5.87,14.37-28.69-1.06-3.25,27.13-61.25a29.27,29.27,0,0,1,2.88-.75c2.19-.5,2.69-.87,3.25-1.69a6.39,6.39,0,0,0,.94-1.75c0-.16,20.19,5.06,20.19,5.06Z" transform="translate(0 0.53)"/><path class="cls-6" d="M533.25,774.08l21.75,5.5-10.5,35.67a2.92,2.92,0,0,0-1.92.58,4.36,4.36,0,0,0-1.08,1.67l-20.33-5.42Z" transform="translate(0 0.53)"/><path class="cls-6" d="M521.17,813.92l19.33,5.83a4.32,4.32,0,0,0,0,2.42,3.28,3.28,0,0,0,1.5,1.5l-9.08,27.17-22.08-7.33Z" transform="translate(0 0.53)"/><circle class="cls-6" cx="545.71" cy="820.93" r="2.9"/><polygon class="cls-6" points="488.25 839.52 507.75 845.62 505.38 853.37 485.42 847.2 488.25 839.52"/><path class="cls-6" d="M510.17,845.42l-2.42,7.42,49.63,16.67,4.29-12.75-.5-6.5-3.79-2.33,4.29-18.33,5.67-3.75,2.83.5,1.75,1.42L578,836.5l9.83-23.33,13.68-23.79L561.67,781l-11.29,36.94a5.41,5.41,0,0,1,.31,4.06,6.29,6.29,0,0,1-2.37,2.94s-4.06,11.78-6.31,19.44c-.72,2.46-2.85,10.3-3.15,10.23C537.36,854.23,510.17,845.42,510.17,845.42Z" transform="translate(0 0.53)"/><circle class="cls-6" cx="421.09" cy="747.2" r="3.86" transform="translate(-293.66 273.65) rotate(-27.04)"/><polygon class="cls-6" points="447.67 704.03 476 713.53 488.17 677.2 462.33 681.53 454.33 689.03 447.67 704.03"/><polygon class="cls-6" points="447.67 705.87 475 715.2 465.33 744.87 437.67 735.37 447.67 705.87"/><polygon class="cls-6" points="484.5 716.2 514.83 726.2 533.83 668.37 498.67 674.87 484.5 716.2"/><path class="cls-6" d="M483.33,717.83c.42-.17,30.17,10.37,30.17,10.37L505.37,758l-31-9.83Z" transform="translate(0 0.53)"/><polygon class="cls-6" points="489.83 677.2 496.17 675.53 472.17 747.74 468.67 745.53 489.83 677.2"/><path class="cls-6" d="M446,703.06c-1,2.94-10.69,32.69-10.69,32.69l33.35,12.06-2.67,9.5L427.38,748a16.7,16.7,0,0,0-1-3.67,9.18,9.18,0,0,0-2.12-2.33l16.44-39.37s9.28-20.91,9.44-21.12,5.56-5.87,5.56-5.87L501.56,666l30-5.69h8.81l1.56,2.5v7.75l-19.25,57.37-11.25,32.62-.34,5.29a4.2,4.2,0,0,0-1.66.71,3,3,0,0,0-1.19,1.56L468,758s2.19-8,2.38-8.32,33.75,11,33.75,11,1.44,1,2.13.44,12.81-41.19,12.81-41.19l17.62-53.12-.06-1.44-2.12.06L495,673.25l-33.56,6.25-4.12,2.44-4.81,6Z" transform="translate(0 0.53)"/><circle class="cls-6" cx="511.1" cy="770.61" r="1.42"/><path class="cls-6" d="M512.71,767a4.21,4.21,0,0,1,1.33,1.13l.63,2,2.42-.74L532,772.46l1.75-1.12.46-2.5,1.46-1L567,668.38l32.38-10.12L612,650.63l2-3.62v-2.5l-53,11.38-7,3-1.25,3.63-4.87,2-3.25,4.38-16.62,49-14.5,43.79Z" transform="translate(0 0.53)"/><polygon class="cls-6" points="568.63 671.03 599.88 660.85 603.5 665.16 600.5 677.78 603.5 688.66 606.38 690.53 587.83 747.03 547.79 734.28 568.63 671.03"/><circle class="cls-6" cx="546.61" cy="657.12" r="4.74" transform="translate(-238.99 320.87) rotate(-27.04)"/><path class="cls-6" d="M456.33,672.25A22.79,22.79,0,0,1,459,661.5a43.07,43.07,0,0,0,4-9.75s10.25-21.62,12-26,6-16.37,9.5-19.5,6-7.12,15.75-10.25,64.63-17.56,66.5-18.37,5,.38,3.63,3.25S559.5,613.5,559.5,613.5l-10.62,31-4.5,6.38-3.75,3.25-9.5,4.38Z" transform="translate(0 0.53)"/><path class="cls-6" d="M574.5,575.13,585.88,572,596,579.88l-1.25,4,12.13,7.63-12.25,17.63-.87,3.5L600,614.5l13.25-19.62,21.63,16,1.88-4.12,5.5,4v5l-12.37,15.88L618.63,641l-15.12,3.5-48.87,9.38a26.56,26.56,0,0,0-1.87-2.62,4.65,4.65,0,0,0-2.5-.87L555.13,634Z" transform="translate(0 0.53)"/><path class="cls-6" d="M588.5,571l8.38-2.37s-1,8.94-1.37,8.75S588.5,571,588.5,571Z" transform="translate(0 0.53)"/><path class="cls-6" d="M403,619.5c.42-1.42,30.42-18.42,42.5-23.5s22.42-8.83,22.42-8.83,4.92,13.17,5.75,15.17,5.75,4.17,7.17,3.83-7.5,12.46-10.17,18.65-14.83,36.44-16.5,38.69-5.83,7.33-8.5,4.33S403,619.5,403,619.5Z" transform="translate(0 0.53)"/><path class="cls-6" d="M471.5,585.5S517,566.75,521.83,565s42.5-12.25,45-13.5,7.25-1.25,8.5,0,2.92,2.17,0,9.83-2.75,11.17-10.17,13.5-57.17,16-57.17,16-15.75,4.75-18.83,6.17-7,5.5-7,5.5l-4.17-.83Z" transform="translate(0 0.53)"/><polygon class="cls-6" points="585.17 549.2 580.17 564.7 584 568.2 601 564.2 641.33 553.03 652.67 548.37 664.33 533.53 639.5 536.37 617.33 538.87 590.67 545.7 585.17 549.2"/><path class="cls-6" d="M668.17,536.17l-4.5,9.33a18.7,18.7,0,0,0,3,2c.42,0,10.83,2.83,10.83,2.83l2.83-2.83-4.5-15.67-7.33,2.5Z" transform="translate(0 0.53)"/><path class="cls-6" d="M394.5,623.5l5.5-1.17c.42-.08,32.83,34.67,32.83,34.67l11.33,13.33-1.5,4.67-49,8.5-35.5-24Z" transform="translate(0 0.53)"/><polygon class="cls-6" points="401.17 684.87 441.99 678.7 447.67 680.87 432 719.03 427.03 718.37 401.83 690.53 401.17 684.87"/><polygon class="cls-6" points="396.13 687.78 424.42 722.03 420.17 732.53 416.72 735.37 393.83 730.2 370.91 725.37 372.88 710.95 387.83 692.87 396.13 687.78"/><polygon class="cls-6" points="355.25 662.28 390.62 685.53 303.75 803.7 276.5 786.78 265.25 785.78 262.5 782.72 265.25 776.53 249.75 767.28 355.25 662.28"/><polygon class="cls-6" points="547.79 737.03 587.83 750.22 578.5 782.72 536 772.99 538.08 769.19 547.79 737.03"/><polygon class="cls-6" points="598.67 577.91 599.83 568.2 639.33 557.53 660.67 552.2 680.33 555.37 686.5 571.03 654.33 613.47 635.17 603.03 598.67 577.91"/><path class="cls-6" d="M243.17,895.83s45.92,18.83,45.67,19.33-8.67,20.67-8.67,20.67L228.5,912.17Z" transform="translate(0 0.53)"/><polygon class="cls-6" points="290.83 916.37 338.67 937.2 329.5 957.72 282.5 937.04 290.83 916.37"/><path class="cls-6" d="M347.67,919.5c.67-.08,16.83,6.67,16.83,6.67l1.5,3.17,43.33,18.23,2.83-2.06,34.5,14.33-5.23,18-7.6-5.67-1.52,2.33,7.52,5-11,34.33-15-5s-1.17,2-.67,1.83,14.5,4.67,14.5,4.67l-3.33,8.67-51-1.5-18.67-7.83L368,978.83l-1.08-2.5L335.67,963.5l-4.33,2.17L322,988l-1.83-1.67Z" transform="translate(0 0.53)"/><polygon class="cls-6" points="324.33 988.87 332.67 968.2 335 966.2 364.67 978.53 366.17 979.7 357 1003.03 324.33 988.87"/><path class="cls-6" d="M322.67,991.67l32.5,13.5-8.5,22.67-2.67,1.33s-30.76-13.49-30.75-14a19.29,19.29,0,0,0-.25-2Z" transform="translate(0 0.53)"/><polygon class="cls-6" points="432.94 1011.7 488.33 1029.37 480.83 1049.2 427.67 1026.7 432.94 1011.7"/><polygon class="cls-6" points="433.83 1009.2 489.33 1026.87 501.17 989.03 446.67 969.7 433.83 1009.2"/><polygon class="cls-6" points="446.67 966.87 455.88 937.37 465.83 940.16 468.67 942.2 479.83 940.87 487.67 942.53 541.83 908.37 549.17 896.53 551.17 896.53 509.83 1031.7 492.5 1026.7 504.17 987.7 502.5 986.2 485.33 980.53 496.33 946.37 494.17 945.7 483 979.7 446.67 966.87"/><path class="cls-6" d="M512,1032.25c.31-.19,14.25,3.63,14.25,3.63l9.25-19.75-1.12-2.75,4.25-6.87,1.5,1-3.25,5.25,1.88.13,6-10.25L540,1000l-3.5,5.75-1.62-.62,3.5-6.5-7.25-4.37,1.13-1.37,6.38,3.63,5.25-8,1.63,1.13s-5.44,7.94-5.12,8.13l5.13,3,9.75-13.5-9.12-5.37h-2.37L541,985.5l-1.62-.62,2.63-3.75,3.75-2.25,11.63,6.88,10.25-15.87s-28.5-14-27.81-14.25,1.31-2,1.31-2l27.75,14.13,2-5.62v-3.75l-28.75-8.62.38-1.87,28.38,8.75-1.12-15.5,1.13-79.25h-6.62l-18.5,62.63L524.5,990.25Z" transform="translate(0 0.53)"/><path class="cls-6" d="M644.13,614.38l3.75-1.44,7.63,3.44s32-45.19,31.63-44.37,9.5,30.13,9.5,30.13-1.12,2.5-.62,3.88,3.38,2.5,3.38,2.5v4.44l-7.5,12.31-16.37-9.5-2.12,1L663.88,634l-12.5,16.75H650L646,648l-1.87,1.38L627.5,693.25l1.25,3.13,10.88,5.13L632.88,713l-9.25-3.12-.62,2.25,8.88,3-6.75,21.38-10.25,26.75L605.5,760l-3.12.38-4.12,13.71s1.81,1.17,1.88.79,3.63-12.75,3.63-12.75L614,765.38l-13.62,16.81L595,785.75l-14.62-3.56,28.13-93.44s-3.56-3.19-3.5-3.62-2.87-7.75-2.62-8.12,4-13.25,4-13.25l-4-5.37L614,651.5l3-4.87-1.25-3,4.88-1.12,10.88-9,11.63-15Z" transform="translate(0 0.53)"/><polygon class="cls-6" points="647 651.78 651.75 654.41 655.25 649.66 669.75 660.85 641.63 700.03 630.38 694.78 632.75 684.91 644.75 654.41 647 651.78"/><polygon class="cls-6" points="656.63 648.28 669.75 658.28 679.88 644.28 666.5 634.28 656.63 648.28"/>
<polygon class="cls-6" points="668.25 632.78 681 642.41 689.63 627.03 676.13 618.91 668.25 632.78"/><path class="cls-6" d="M680.83,533l3.83,13.92v1.67a1.51,1.51,0,0,1,.92,1.17,18.1,18.1,0,0,1,0,3.08l2.83,5.5,11.67,41.17a2.28,2.28,0,0,1,2.33,0,8.78,8.78,0,0,1,1.5,1.17l5.17-5.25L720,568.33l-7.42-3.17.58-1.58,7.92,2.25,9.75-25.17-6.58-2.08-2.17,5.67-2.08-.92,6.08-14.67,1.5.67L725,536.75l5.83,2.42,4.75-12.32a.56.56,0,0,0-.21-.66,2.44,2.44,0,0,1-1.12-2.61,3,3,0,0,1,1.13-1.92.38.38,0,0,0,.11-.54l-4.74-6.71-3.17-3.75L711.33,521l-8.17,4.08L694.92,528l-12.33,3.08Z" transform="translate(0 0.53)"/><circle class="cls-6" cx="738.25" cy="523.75" r="1.5" transform="translate(-48.45 76.59) rotate(-5.71)"/><polyline class="cls-6" points="169.56 1018.24 168.87 1019.83 166.61 1024.53 168.8 1024.5 171.06 1019.83 171.48 1018.92"/><path class="cls-6" d="M241.28,1024l-17.15-8.44-17.82-12.84-17.73-16.1-3.16.19-5.17,11.59,1.46.64,5.8.13,3.53-4.88s2.13-1.69,1.75.88l-11.58,19a7.92,7.92,0,0,0,.88,3.26,3.81,3.81,0,0,1,.63,3.07c-.25.5-1,1.63-1,1.63l2.13,1.91h70.48" transform="translate(0 0.53)"/><path class="cls-6" d="M301.7,1024l26.6-64.75L225.62,913.94l-13.75,15.28L202,950.84l46.71,19.42.55.77,9.36,3.34s.94,1,0,1.56a1.2,1.2,0,0,1-1.54,0l-7.47-2.79a8.63,8.63,0,0,1-.28,2.22c-.27.73-7.6,18-7.6,18l.27,5.22,4.12,5s1.74.22,2,1-.81,1.25-1.74,1.25l-4.18,9.2,15.68,6.56s.83.74.79,1.46c0,0-.4,1.24-2.31.63s-16.06-7.19-16.06-7.19-.85-.39-.08-2,4.48-9.74,4.48-9.74L240,999.27l-.34-6.18,8.13-19.22a2.35,2.35,0,0,0-1.69-3c-2.37-.76-14.39-5.59-14.39-5.59l-11.6,28.19s-4.91,3.64-5.67,3.13a1.54,1.54,0,0,1-.5-1.57l4.55-2.6,11.37-27.92-28.79-12.09-10.65,23.89s1.84,1,2.28,5.38l7,7.34L211,999.52l17,12L254.31,1024Z" transform="translate(0 0.53)"/><polyline class="cls-6" points="304.34 1024.53 318.65 989.58 320.99 991.53 310.73 1014.14 311.57 1017.06 315.46 1018.83 312.67 1024.53"/><polyline class="cls-6" points="315.2 1024.53 317.42 1019.86 328.29 1025.03 345.25 1033.09 349.08 1031.17 351.13 1024.53"/><polygon class="cls-6" points="369.56 1025.03 353.63 1018.24 351.13 1024.53 369.56 1025.03"/><polyline class="cls-6" points="169.85 1011.42 156.98 996.33 145.92 981.24 138.61 970.46 145.54 960.62 147.33 962.12 147.42 976.83 161.29 993.61 173.95 1000.46 176.85 1000.74 172.81 1011.05"/><polygon class="cls-6" points="94 1024.53 105.55 1009.28 140.65 1021.52 147.72 1025.03 94 1024.53"/><path class="cls-6" d="M174.47,1011l5-10.63,1.69,1.06h5.32l-7.37,12.5.71,3.74s1.24,1.69.53,2.66l-4.53-4-.43-.35" transform="translate(0 0.53)"/><path class="cls-6" d="M174.47,1011.11a4.09,4.09,0,0,1,1.33,3.28,4,4,0,0,1-.35,1.65" transform="translate(0 0.53)"/><path class="cls-6" d="M169.85,1010.89a4,4,0,0,1,3-.37" transform="translate(0 0.53)"/><circle class="cls-6" cx="171.8" cy="1014.92" r="2.16"/><path class="cls-6" d="M176.8,1015.68" transform="translate(0 0.53)"/><path class="cls-6" d="M185.16,974.93a7.08,7.08,0,0,1,3.42,0l1.55-3.52-7.77-5.49-4.25-.41-1.26,1.45Z" transform="translate(0 0.53)"/><path class="cls-6" d="M209.79,924.86s-12.16,3-21.37,6-10.25,7.47-14.83,15.19,1.73,18.9,1.73,18.9l1.2-1.12h5.86l9.08,5.16,4.66-10-3.94-1.85-5.3-7.55s.4-1.93,1.77-.48A63.63,63.63,0,0,1,193,955.3l3.61,1.93,13.49-29.16,4.62-4.44Z" transform="translate(0 0.53)"/><circle class="cls-6" cx="186.52" cy="981.56" r="2.78"/><path class="cls-6" d="M752.51,493l-5.31,8.72s-5.94-1.39-8,1-1.67,6.53-.92,8a38.75,38.75,0,0,1,1.74,4.67l-1.74,4.16h-1.83l-9.33-12.67S740.54,498,741.45,498s11.05-5,11.05-5" transform="translate(0 0.53)"/><path class="cls-6" d="M678.79,529s22.14-7.64,24.25-8.74,21.67-12.49,21.67-12.49l1.74,2.39-15,9.33-8.08,4.25-23.08,7.17Z" transform="translate(0 0.53)"/><path class="cls-6" d="M847.32,398.56l-17.4,15.39-36.27,23.81-22.9,16.85-29.86,34.07,27.84-9.89,56.77-16.3,73.38-17.66,89.44-13.92,7.26-.56-61.74-23.48s-16.2-6.57-18.16-6.21l-6-1.45-3.39-5.77-6.52-1.38-5.39,6.52-1.25,2L880.92,402l-19.69,7.6Z" transform="translate(0 0.53)"/><path class="cls-6" d="M153.41,838.39s8.49,6.89,15.82,6.7,13.7-1,16.21-4.34a20.18,20.18,0,0,0,4.05-9.17c.39-2.7-.39-10,1.35-14.95s8.87-11.59,11.77-13.47,13.9-15,13.9-15,12-14.66,14.27-15.43,61.92-49.57,62.7-52.24l-1-1s-13.41,8.58-15.58,9.47-9.76,3.35-11.34,4.49-13.45,10.6-15.8,13.56S234.39,763.63,231,767.18s-15.29,12.24-17.48,15.14-13.43,11.19-14.91,14.15-11.09,10.65-11.09,10.65l-13.61,12.57-12.15,7.84Z" transform="translate(0 0.53)"/><path class="cls-6" d="M167.32,855.16s3.45,7.48,2.49,12.67-6.52,11.71-6.52,11.71-1.92,5.18-20.92,5.18c0,0,7.29,1.92,9.4,1.73s9.21-.19,12.47-3.65,10.17-17.46,10.17-17.46l2.11-3.26Z" transform="translate(0 0.53)"/><path class="cls-6" d="M166.54,848.1l12.76,8.84,10.48-17s-5.1,6.74-9.11,7.56S166.54,848.1,166.54,848.1Z" transform="translate(0 0.53)"/><path class="cls-6" d="M196.11,829.21l9.71-16.76s-5.06,1.55-6.43,3.86-2.88,5-2.88,7.2S196.11,829.21,196.11,829.21Z" transform="translate(0 0.53)"/><path class="cls-6" d="M146,942.75,174.35,969s-8.43-11.68-6.25-23.9,4.22-17.16,4.22-17.16l1.27-4.8s-10.29,4.51-13.41,6.83S146,942.75,146,942.75Z" transform="translate(0 0.53)"/><path class="cls-6" d="M120.16,925.56l20,13.46,20-34.51-1.53-.66s-11.57,17.59-15,19.27-8.44,4.22-12.23,4.19S120.16,925.56,120.16,925.56Z" transform="translate(0 0.53)"/><path class="cls-6" d="M155.7,902.36s-21.27-12-26.81-10.17-13.87,5-14.1,11.66-.23,13.37,4.16,15.65,5.37,5.27,12.5,4.23A31.26,31.26,0,0,0,143,919.84Z" transform="translate(0 0.53)"/><path class="cls-6" d="M146.88,939.89,164.72,908l10.6,5.34-1.73,7.38s-16,8.84-17.32,10.2S146.88,939.89,146.88,939.89Z" transform="translate(0 0.53)"/><path class="cls-6" d="M179.12,915.32l-1.48,5.57s17.61-.68,18.52-.91,5-1.14,5-1.14-10.05.06-11.47,0-10.37-4.23-10.37-4.23Z" transform="translate(0 0.53)"/><path class="cls-6" d="M167.61,902.39l18.23-32.75,1.13.72s-5.26,9.13-6.31,11.33a26.8,26.8,0,0,0-1.89,21.18l-1.12,5.1Z" transform="translate(0 0.53)"/><path class="cls-6" d="M188.74,870.81s-6.62,14.28-7,15.65-1.65,6.69-1.08,9.38,2.18,8.92,6,12.14,16.62,3.46,17.1,3.38a83.47,83.47,0,0,0,9.28-6.13s6.15-6.62,8.69-13.22l3-4.72s-13.91-.31-18.7-3.53S188.74,870.81,188.74,870.81Z" transform="translate(0 0.53)"/><path class="cls-6" d="M193.25,866.74s11.26,10.17,13.61,10.95,9.94.23,13.3-2.68,10.91-11.36,10.91-11.36l8.09-6.7s12.63-7.1,14.69-7.51,4.82-3.71,4.82-3.71,3.38-3.69.89-7.47-10.29-9-10.29-9L233,816.86a12.07,12.07,0,0,0-3.27-1.76c-2.49-.88-8.29-1.42-10.11-.56-2.65,1.26-5,1.91-7.51,8.09s-4,18-6.29,21.92-6.06,10.59-7.94,13.8S193.25,866.74,193.25,866.74Z" transform="translate(0 0.53)"/><path class="cls-6" d="M210.76,881.93s8.58-1.2,11.73-3.92,7.18-9.91,8.58-10.26,6.65-6.13,8.58-6.65,8.93-6.13,12.43-7,9.1-4.89,10.68-8a38.67,38.67,0,0,1,5.1-7l6.26,3.52,2.37,1.44-5.85,9.79s-9.12,13-10.17,13.59-6.9,7.61-13.53,10.6-11.72,4.94-20.08,5A122.7,122.7,0,0,1,210.76,881.93Z" transform="translate(0 0.53)"/><path class="cls-6" d="M176.53,926.28l-4.61,13.61s1.72-4,3.39-4.79,10.08-6.57,10.08-6.57l14.16-4.6s11.69-2.4,12.93-4.44S246.53,883,246.53,883l-8.21,3.45S227.16,898.79,224.74,901s-8.57,11.54-11.85,13.56-3.49,4.43-13.34,6.82S176.53,926.28,176.53,926.28Z" transform="translate(0 0.53)"/><path class="cls-6" d="M192.57,819.13s6.2-8.1,9.29-9.35,7.36-3.37,7.36-3.37L214.09,795s-4.4,4.89-6.2,6.36-3.27,2.93-6.93,5.71a36.06,36.06,0,0,0-5.79,5.39Z" transform="translate(0 0.53)"/><path class="cls-6" d="M109.12,917.75s-5.31-3.05-5.93-6.39,1.72-7.51,1.72-7.51l5.78-8s2.91-4.52,4-5.45,9.3-4.46,11.14-4.31,6.33-1.4,8.25-.52,11.9,3.25,11.9,3.25,9,2.47,14.18-.71a47.72,47.72,0,0,0,6.37-4.33L158,897.48s-18.63-9.24-21.09-9.39-7.22-1.16-10.25-.14S117,890.41,114.71,893s-5.27,8.11-5.71,10.84.32,8.83.88,10.76A3.15,3.15,0,0,1,109.12,917.75Z" transform="translate(0 0.53)"/><path class="cls-6" d="M215.73,815.07l3.07-5.29s5.49-.68,6.47,0,2.34,3.51,2.34,3.51-5.12-1.56-6.17-.84A59.57,59.57,0,0,1,215.73,815.07Z" transform="translate(0 0.53)"/><path class="cls-6" d="M219.48,805.26s5.12.54,6,1.2,0-9.69,0-9.69l15.9-25.05h-2Z" transform="translate(0 0.53)"/><polygon class="cls-6" points="212.61 806.23 227.61 779.35 220.56 786.95 212.61 803.7 212.61 806.23"/><path class="cls-6" d="M189.78,875.45s-2.1,18.2-.38,22.32,3.31,9.81,11.76,9.24,8.07-12.65,8.07-12.65-1.46-3.77-6.44-8.25Z" transform="translate(0 0.53)"/><path class="cls-6" d="M208.52,886.45s4.25,6.62,4.16,8.44-1.92,9.44-1.92,9.44l6.77-8.94,4.07-6.59Z" transform="translate(0 0.53)"/><path class="cls-6" d="M203.48,854.73s-.53,4.44,0,5.34,1.58,2.33,3.08,2.33,5-.3,5-.3l-4.14-3.54Z" transform="translate(0 0.53)"/><path class="cls-6" d="M212.13,849.62a48.38,48.38,0,0,0-3.31,4.14,5,5,0,0,0-.31,2.78l11.5,9.4,3.42.75,4-4Z" transform="translate(0 0.53)"/><path class="cls-6" d="M208.9,846.05l3.54,1.08,9,7.6.83-1.2-2.27-2,1.65-28.28s3-5.72,5.19-6.24c0,0-6-1.5-8.94,1.43a27.44,27.44,0,0,0-4.89,7.75s-2.22,9.48-2.27,11.58S208.9,846.05,208.9,846.05Z" transform="translate(0 0.53)"/><path class="cls-6" d="M205.82,854.51s2.4-5.34,3.38-5.42-2.41-.75-3,0a11.65,11.65,0,0,0-1.2,2.18Z" transform="translate(0 0.53)"/><path class="cls-6" d="M229.06,818s7,3.76,7.9,4.89c0,0-5.79,1.73-6.39,2.48s-1.5,26.63-1.5,26.63l-2.2,2-2.54-2.43.6-26.88Z" transform="translate(0 0.53)"/><path class="cls-6" d="M237.7,827.67h-3.39L231.55,830l-.47,22,4.57,1a2.3,2.3,0,0,0,.79-1.18C236.59,851.16,237.7,827.67,237.7,827.67Z" transform="translate(0 0.53)"/><polygon class="cls-6" points="239.43 829.15 238.8 851.93 241.32 851.93 245 848.77 245 833.25 239.43 829.15"/><polygon class="cls-6" points="247.47 834.72 247.07 846.17 249.12 842.71 249.75 837.98 247.47 834.72"/><path class="cls-6" d="M251.27,836s.4,6.35-.35,7.8a32,32,0,0,1-2.76,3.91s6.81-.72,8-2.66,2.51-4.5,1.9-5.18-1.85-3.61-2.91-3.87A18.71,18.71,0,0,0,251.27,836Z" transform="translate(0 0.53)"/><polygon class="cls-6" points="223.16 857.08 224.07 856 226.19 857.08 228.98 856.28 230.06 854.59 232.17 855.27 233.83 855.54 229.38 861.87 223.16 857.08"/><path class="cls-6" d="M205.42,864.08s7-.29,8-.63,5.87,4.62,5.87,4.62l5.46.57-5.63,6.27s-.57-1.83-3.54-1.2a11.54,11.54,0,0,1-4,.4s-3.6-1.25-3.65-1.94S205.42,864.08,205.42,864.08Z" transform="translate(0 0.53)"/>
<polygon class="cls-6" points="195.16 866.55 201.32 855.54 205.42 870.32 202.65 872.08 195.16 866.55"/><path class="cls-6" d="M203.66,873.34l2.54-1.79,1,2.62s4.14,1.83,4.35,1.83a43.28,43.28,0,0,1,4.51-.55c.41.13-3.18,1.43-3.18,1.43h-4.34Z" transform="translate(0 0.53)"/><path class="cls-6" d="M220,881.17h8.48c1.13,0,2.58-4.29,2.58-4.29l6.62-6.07,13.18-14.73-12.54,7.35-5.76,5.19-5.16,5.59S222.5,880.72,220,881.17Z" transform="translate(0 0.53)"/><path class="cls-6" d="M228.57,802.16v4.9s13.64,9.58,15,11,17.16,14,17.53,14.91,3.85,6.9,2.73,8.91,5.46-5.91,5.46-5.91Z" transform="translate(0 0.53)"/><polygon class="cls-6" points="892.25 399.03 898.88 390.78 907.5 392.53 911.5 397.37 935 403.53 879.88 373.16 868.92 380.91 854.5 390.78 850.13 397.37 862 407.41 877.75 401.2 892.25 399.03"/><polygon class="cls-6" points="876.5 372.1 856.25 385.95 845.25 396.72 818 419.78 794.5 435.03 794.5 429.78 814 401.2 818.5 389.63 855.25 370.08 876.5 372.1"/><polygon class="cls-6" points="172.81 1018.84 175.13 1017.58 182.05 1024.5 170.4 1024.5 172.81 1018.84"/><polygon class="cls-6" points="168.41 1017.58 167.51 1014.92 152.96 1024.5 164.89 1024.5 168.41 1017.58"/><path class="cls-6" d="M89.45,1024l1-1.42,12.6-17.31,46.65,17.28,16.88-10.33v-1.85l-31.4-40.17,9.9-12.69,3.73,3.28v14.12l13.27,16.6L174,998.25h3.67l6.12-11.19s-4.32-3.87-3.5-6a9.47,9.47,0,0,0,.25-4.7L143.64,946,99.83,915.83s-1.51-6.9,1.66-11.49,14.94-17.88,14.94-17.88,7-5.23,14-4.57,13,.93,17.26,0,10.81-.93,15.56-8.85,2.38-16.43.47-18.3S148,845.09,148,845.09l-1.09,1-23.4,28.16s-8.73,12.55-15.74,17.78c-7.45,5.56-22.07,35.3-22.07,35.3S66,955.2,64.79,957.19c-4.5,7.31-16.52,35.68-16.52,35.68l-5.57,8.88c-.4.53-4.48,6.34-4.65,7l-7.27,6.95-4.9,8.29-3.09,5.43H85.53Z" transform="translate(0 0.53)"/><path class="cls-6" d="M535.88,1023.38c.63-.56,27-41.12,27-41.12l6.63,4.88,8.75,3,14,4.63-2.5,10.25-13.25,19.5Z" transform="translate(0 0.53)"/><path class="cls-6" d="M645.88,698.26l17.75,13.24h1.88s8.75-9.31,8.63-9.87,5.75,1.78,5.75,1.78l-9.37,19.84-12.75,40-6.12-1.75v-4.62l-11.75-3.25-11.75,22.5-13-7,12.75-30.5,5.75,2.63-1.25,3.13,21.88,9.5.88-1.62-19.37-9.62,1.56-3.62-8.44-3.62,2.38-6.56,17.94,5.69.69-2.12-17.75-6.12s4.09-13.59,4.13-13.75S645.88,698.26,645.88,698.26Z" transform="translate(0 0.53)"/><polygon class="cls-6" points="614 772.2 605 790.87 611.5 794.7 613 789.87 615.13 789.37 645.33 805.37 650.06 790.53 650.06 786.28 646.67 787.87 642.5 787.37 639.88 783.7 614 772.2"/><path class="cls-6" d="M789,690.75c-.42-.25,2.17-3.92,2.17-3.92h2.17l-2.17,15H784.5L780,699.5l-5.17,1.67L768,712.67l-18.67,16.67L730,742.67,712.48,751l-5.1,18.17-5.71,5.5-6.33,3-8-1.54-7.46-2.62-19.54-7.67L672,727.17l9.73,8.5,14.6,1.53,5-2.53,4.17-3.17,3-8.33,33.67-15,3.92-1.83,3.42-3.17,7-1.83,9.67-10.58,4.17-3.08,8.83,1.33,4.58-2.17,6.59-10.46,2.33,4.13-8.92,12.75,3.25,1.56Z" transform="translate(0 0.53)"/><path class="cls-6" d="M604.33,792.67c.5.5,6.17,3.13,6.17,3.13l1.17,3,24.83,10.5.83-2.5-7.83-4,2.17-2.83,14.5,7.5-7.67,36.33-18.83-6.17L617.33,842l-32-13s5.25-15.08,5.67-15.08S604.33,792.67,604.33,792.67Z" transform="translate(0 0.53)"/><path class="cls-6" d="M584.17,831c.42.08,33.67,14.5,33.67,14.5l3.17-5.33,18,6.33s-7.75,47.38-7.33,47.94,3.5,3.06,3.5,3.06L638,916.33l-10.5,30h-3l-2.83,12.83-3.17,2.17-10,4.67-7.33,2.67-6,9.5-4.17,13-18.67-5.67-8.27-6.5s8.69-12.42,8.94-12.83,1.17-10.33,1.17-10.33L573,928.33s-.58-38-.5-37.5,1.67-30.17,1.67-30.17L580,839Z" transform="translate(0 0.53)"/><polygon class="cls-6" points="642.5 756.7 650.06 759.88 650.06 763.87 657.17 765.87 650.83 784.37 646.5 786.28 643.33 784.53 641 781.53 631.67 776.66 642.5 756.7"/><path class="cls-6" d="M696.13,622.75c.31.06,3.25,2.25,3.25,2.25v7.63l-9.75,25.13-9-5.87Z" transform="translate(0 0.53)"/><path class="cls-6" d="M678.94,653.88c.13-.06,9.94,7,9.94,7l-10.5,29.88s-17.19-11.45-16.87-11.88S678.94,653.88,678.94,653.88Z" transform="translate(0 0.53)"/><path class="cls-6" d="M660.75,680.5c.31,0,16.38,12.13,16.38,12.13l-12.75,16.5-15.87-13Z" transform="translate(0 0.53)"/><path class="cls-6" d="M693,657.75l-7.62,19.63s4.44,1.68,4.63,1.49,3.63-9.74,3.63-9.74l1.75.5-3.5,9.88,8.88,3.38.88-4H703s.13,5.13,0,5a20.86,20.86,0,0,1,2.25.63l6.38-17.25-3.25-1.12-2.75-3.5-1.25.63L703,669.63l-1.5-.25,1.75-7.87s-4.94-1.62-4.75-1.62a21.8,21.8,0,0,1-.75,3.38l-1.87-.37.88-3.75Z" transform="translate(0 0.53)"/><path class="cls-6" d="M713.13,667.63c.31.19,8.88,2.5,8.88,2.5l-1.37,4.19-4.12,3.56-1.87-1.25.38-3.12s-2.81-1.56-2.5-1.75S713.13,667.63,713.13,667.63Z" transform="translate(0 0.53)"/><path class="cls-6" d="M711.63,673.5a10.21,10.21,0,0,1,.85.81v3.56l2.65,1.5L707.75,686l-1.12-.87Z" transform="translate(0 0.53)"/><polygon class="cls-6" points="723.38 671.66 722 675.41 725.5 676.91 727.63 671.66 726 671.03 723.38 671.66"/><polygon class="cls-6" points="698.5 645.03 702 646.28 701.13 649.66 702.63 650.41 703.75 646.28 707.38 647.72 702.94 659.91 699.38 658.28 700.75 655.28 699.38 654.41 697.88 657.66 693.88 656.16 698.5 645.03"/><path class="cls-6" d="M675.19,698.26l4.69-5s21,7.83,21.46,7.58,8.33-2.57,8.33-2.57L724,687l15-15.87,5.17-6.29,3.5,3.5-17.5,21.17.67,5.31,3.5,3.45,6.33-1.43,7-3.58,15-12.75H766l2.83,4-6.67,6.25-5.5,7.51L747,701.83l-3,3-3.67,1-4.58-2.43s-20.33,4.26-19.92,4.09,1.4,1.63,1.4,1.63l18.51-3.29,2.42,1.5-20.93,8.83-10.61,5.17-3,9-4.29,2.79-16.54-1-9-8.83,9.33-21.5Z" transform="translate(0 0.53)"/><polygon class="cls-6" points="708.76 687.89 714.07 683.06 716.36 685.66 710.88 690.66 708.76 687.89"/><polygon class="cls-6" points="715.5 681.71 721.52 676.56 724.42 678.1 717.99 684.33 715.5 681.71"/><polygon class="cls-6" points="707.57 689.2 709.47 691.54 707.57 691.86 706.63 691.38 707.57 689.2"/><path class="cls-6" d="M801.5,589c0-.5,1.33-5.83,1.33-5.83l7.33-7s2.42-3.58,3.17-3.5,8.42-13.08,8.5-13.5,6-11.83,6-11.83l3.83-4.33c.58-.67,2.67-9,2.67-9a39.4,39.4,0,0,1,4.83-1.83c.42.08,2.67,3.5,2.67,3.5l-3,14.17L834,562.75,827.17,571l-6.83,5,.5,2.25,4.58-2.75,1.08,6.17,6.17,7.33v7l-9.5,22.83L823,624l2.42,3.67,5.58,2,3.17-2,6.5-14.83,6.17-13.67,2.83-1a29,29,0,0,1,10-.85c1.5.15,2.74,2.73,3.31,4.91a44.78,44.78,0,0,1,1,5.6L799.83,697.5,795.5,699l.67-16,13.67-15.67,5.83-2.5,22-29-2-.83-10.25,12.17-1.58-3.83,6.83-9.83-2-1.17-7.5,11.33L821,646.5l2.67,4-10.5,12.17-5.33,1.5L796.67,678.5l-4.67-8,3.5-3.67,6.67-3.67-1.33-1.83-5.33,3.5.83-12.83,3.5-.83,7-6.67,9.5-2.67-.67-2.83-10,3.5-8,6.5-3.5.5-1.33-3.33,24-50.5-2.17-1.17L792,643.5l-1.66-4.17,9.49-18.17,1.67-7.33,1.67-13.17Z" transform="translate(0 0.53)"/><path class="cls-6" d="M702.25,625.75h2l4,1,3.38-9.75-2.12-.62s-2.87,8.69-2.56,8.38-4.69-1.37-4.69-1.37L697.88,620l4.88-8.37-.37-3.5s1.5.44,2.38-2.12a5,5,0,0,0,0-4l5.25-4.5s3.81.81,4.13,1a12.41,12.41,0,0,1,1,2.75l2.11-.62-1.61-3.12-4-1.87,14.75-37.37,11.88,4.38,2.5,2.88,3,.88L741.63,572l1.5.51,2.25-5.25,20.75,8.13,1.13,2.5-8.37,24-.37,3.75-6.5,18.5s-3.94,4.31-3.87,4.63S742,646.38,742,646.38l1.38.63L751,628.75l3.13-3.5,7.63-21.75-.37-4,8.13-21.62-1.25-4.5-25.37-8.87,10.38-27.37,6.63,5.75-5.87,18,1.38.5,5.88-17,7.25,5.38-4.12,14,1.5.63,4.88-13.75,7.63,5.38-3.5,10.5,1.38.75,3.63-10,3.88,2.38L749.5,652.88l-8.69,13L727.63,681l-18.37,15.13s-9,1.81-8.62,2.13-20.75-7-20.75-7l4.75-11.5,5.38,2.13-3.12,9.63,2,.5,3.25-9.62,5.13,2.13-1.12,3.88-2.25,2.38,1.88,1s1.63-1.94,1.88-2.25,1.75-4.62,1.75-4.62l7.25,3.25-1.87,3.5,1.88,1.63,4.25-.75,15.38-13.63,3.63-8.37-3.37-2-2.75.75-12.87-4.12-6.5-5.75,5.25-13.62-4.87-1.87,1.13-2-1.75-.75-.87,2.13s-4.44-1.44-3.87-1.37,2.75-8.12,2.75-8.12Z" transform="translate(0 0.53)"/><path class="cls-6" d="M737.33,527.58c.25-.21,1,.18,1.79-.17a2.28,2.28,0,0,0,1.14-.81.3.3,0,0,1,.44-.05l10.54,9-8.83,25.08-1.83,2.08-13.5-6.25,4.73-12.75,3.52,1.25,3.83-9.83-4-1.17Z" transform="translate(0 0.53)"/><polygon class="cls-6" points="734.67 536.12 736.42 536.78 733.92 543.53 732.5 542.95 734.67 536.12"/><path class="cls-6" d="M740.05,520.15a.64.64,0,0,0,.26.84,3.28,3.28,0,0,1,1.22,1.44,6.32,6.32,0,0,1-.23,2.26.9.9,0,0,0,.33.79l22.2,18.35,1.75-2.08-3.08-2.46.92-1,2.83,2.25,1.5-1.29,4.5,3.29-2.42,3.33-1.25-1.29L770,543l-1.67-1.33-2.5,3,8.83,6.79,7.75-12.58,5,2.92,2.17-3.25,1.17.79-1.92,3.13L790,543l1.92-3.25,1,.58-3,5-6.83-4.08-7.17,11.17s16.79,10.71,17,10.75,6.92,5.92,6.92,5.92l2.17,9.17,4.83-1.75,8.67-9.58,9.92-19.42-5.17-10.37-14.58-10.21-3-2.17-7.83-1.67-5.42-.42L781.67,517l-12.17-5-8.58-5-4.83-.92-3.92.67-4.67,2.83-5,5.75Z" transform="translate(0 0.53)"/><path class="cls-6" d="M785.33,561.17,797.67,570l2.17,6.5,1,7.5-7,13.83L790.34,611l-.67,5.33-8,5.33-6.17-2-3.5,9.67,1.83.79,2.5-7.37,3.17.75L776,633l2.17.75,3.17-10.08L789,619.5l2.33,10.63.17,3.63L787.17,641l5.17,10.94,1.17,7.44-3.16,5.46-2.67,2.79,1.5,5.13-6.47,7.75-2.87,5.5-3.67.83-5.33-2.33-2-5.63-5.17-1.7-13.83-9.54-4.17-4.79,5.17-6.83,10.83,4.33,1.5-2.58-4.5-1.75,5.67-15-1.83-.75-6,13.62-5-1.21,24.83-63.17,13,5.33,1-2s-14.17-5.08-14-5.5S785.33,561.17,785.33,561.17Z" transform="translate(0 0.53)"/><path class="cls-6" d="M798,594c.08-.42,1.83-1.67,1.83-1.67l-.92,8.33.92,8.67-3,7.17.67,6-4.17,5.17s-2.17-6.42-2.17-6.83,1.5-10.83,1.5-10.83l2.83-10.67Z" transform="translate(0 0.53)"/><polygon class="cls-6" points="749.17 671.03 759.5 680.28 745.67 692.2 738.17 696.03 732.67 693.78 732.67 689.87 749.17 671.03"/><path class="cls-6" d="M842.5,546s2.08-8.83,2.67-8.87S856,539,856,539l2.83,1.83L860,553.17l5.33,19.33,2.33,3.33-1.5,3.5s-5.25,5.92-5,6.5-1.5,8.83-1.5,8.83l-14.17,2-13,29.83h-4l-3.91-4.33L836,594.5l-.83-6.17-7-8.17V574.5l8.5-12.17Z" transform="translate(0 0.53)"/><path class="cls-6" d="M822.33,536.43a33.91,33.91,0,0,1,3.51-2.22c.46-.09,6.28-.55,6.28-.55l-2.4,7.67-3.33,4.8Z" transform="translate(0 0.53)"/><path class="cls-6" d="M750.84,500.82l4.1-8.92,25-7.56,2.09,2.77,4.31,3.38.51,8.37V500l3.53.42,15,8.2s-1.09,1.23-.81,2.08a5.1,5.1,0,0,0,2.49,2.38c.85.28,13.95,13.27,13.95,13.27l3.85,6.35-3.63,2.44-11.79-8.9-6.58-3.51-11.73-1.81-9.6-6.72-18.16-8-8.64-1.47-3.9-2.72Z" transform="translate(0 0.53)"/><path class="cls-6" d="M742.17,512.87l7.6-7.32s-2.79-2-5-2.18-4.63-.45-4.94,1.51-.53,3.07-.25,4,.56,2.85,1.23,3.41A2.73,2.73,0,0,0,742.17,512.87Z"
transform="translate(0 0.53)"/><polygon class="cls-6" points="782.7 483.77 798.44 479.54 800.61 483.12 807.44 489.22 811.45 492.34 814.72 493.85 813.69 494.15 809.4 492.28 806.13 490.52 787.37 489.22 784.35 486.85 782.7 483.77"/><path class="cls-6" d="M802.06,477.59l19.28-4.24,2.06,1.74,7.43,1.66,6.4,3.08a31.43,31.43,0,0,1,3.56,2.77c.16.4,0,1.66-1.2,1.16s-6.21-3.48-6.21-3.48l-3-.51-14.3,5.82-5-1.68-6.19-2.74Z" transform="translate(0 0.53)"/><path class="cls-6" d="M787.05,490.72l.8,7.61h4l18.39,10.6,17.5.36s1.38,1.88-.31,2.12-20.25-.6-20.25-.6l15.53,14.08,4,7.27,5.43-.56s.62.21.68.56,1.87-2.86,6.23-1.71,4.35,5.74,4.35,5.74v1.21s.42-2,2.05-1.87,7.66,1.59,7.66,1.59V466.27l-28.76,6.29s.12,1.17,1,1.43,6.24,1,6.24,1l10.31,5.27s2.91,2.84.82,4.63-5,.34-5.34.19-5.12-3.55-6.27-3.29-14.6,5.6-14.6,5.6l-4.15-.75s-10.32-6.22-11.6-7c-2-1.22,6.48,6.63,6.48,6.63l5.68,4s5.49,1.68,3.66,4.59-6.54-1.08-6.54-1.08l-3.36-1.76Z" transform="translate(0 0.53)"/><path class="cls-6" d="M856,466.53l47.45-11.47,4,2.82s-.4,2.55,0,2.79,1.26.59,2-.74,3.19,5.8,3.19,5.8,6.55,6.72,7.13,9.22a11.51,11.51,0,0,0,1.33,3.59,48.81,48.81,0,0,1,.87,5.1c-.12.41,3.71-1.31,4.51,1.17a3.6,3.6,0,0,1-.93,3.89l3.21,2.11s3.4,0,5.25,1.55,6.06,2.1,6.06,2.1l1.73,3.09-2.1,4.45-4.2,3.15s-2.8,11.65-2.72,18.48,1.14,7.44,1.14,7.44l.79,1.93h-2.36s1.14,2.8,2.36,3.15,1.84,3.07,1.84,3.07l-2.45,13.31s-3.77,3.24-4.47,3.68-2.54,4.47-2.54,4.47l-7.88,9.46-3.33,6-3.32,6.48s-3,.79-3.48,2.21S899.42,606,899.42,606L888,615.58l-1.36-7.44-7.33,3.8-1.36-3.26L873,610l-6.77-7.81-3.8-6.65.24-5.7s1-4.16,3-5.82a15.66,15.66,0,0,0,3.45-4.87l1.07-4.16s-2.62-3.45-2.5-4.63-7-21.27-6.89-29.23l-4.4-5.59Z" transform="translate(0 0.53)"/></g>
</g> 

</svg>